<?xml version="1.0" encoding="UTF-8"?> <svg xmlns="http://www.w3.org/2000/svg" width="64" height="64" viewBox="0 0 64 64" fill="none"><g clip-path="url(#clip0_4713_24290)"><path fill-rule="evenodd" clip-rule="evenodd" d="M34.5332 27.3742C34.5282 27.3698 34.525 27.367 34.5226 27.3649C34.527 27.3688 34.5332 27.3742 34.5332 27.3742ZM54.5109 25.6004C54.5251 25.5955 54.5207 25.597 54.5109 25.6004V25.6004ZM18.9322 17.0621L20.6097 16.9102C20.9274 16.8814 21.1411 16.6561 21.1411 16.3497V15.581C21.1411 15.3343 20.9765 15.1003 20.6097 15.1336L18.9322 15.2854C18.5653 15.3186 18.4012 15.5824 18.4012 15.8291V16.5977C18.4012 16.9042 18.6145 17.0908 18.9322 17.0621ZM50.2768 23.6356C50.8653 24.0874 51.5894 24.279 52.4293 24.203C53.5927 24.0977 54.4739 23.9049 55.1285 23.6145C55.3549 23.5114 55.4852 23.3211 55.4852 23.0919V22.4311C55.4859 21.999 55.1255 21.8979 54.8704 21.9849C54.2533 22.1891 53.4555 22.3334 52.4293 22.4262C52.1488 22.4516 51.9086 22.3753 51.7149 22.197C51.5206 22.0178 51.4216 21.7918 51.4216 21.5228V18.3259C51.4216 18.0581 51.5206 17.813 51.7146 17.5999C51.9093 17.3867 52.1495 17.2666 52.4294 17.2413C53.4542 17.1485 54.2749 17.1485 54.8666 17.2403C55.1578 17.2871 55.4853 17.112 55.4853 16.6833V16.0224C55.4853 15.8051 55.3689 15.6408 55.1435 15.5628C54.4932 15.3906 53.6051 15.3581 52.4294 15.4646C51.5902 15.5406 50.8596 15.8691 50.2592 16.4401C49.6687 16.9996 49.3561 17.7173 49.3561 18.5129V21.7097C49.3561 22.5184 49.6655 23.1656 50.2768 23.6356ZM23.2223 26.8469L24.2254 26.7562C24.543 26.7273 24.7568 26.5018 24.7568 26.1955V20.725C24.7568 20.4689 24.8578 20.2214 25.0503 19.998C25.2438 19.7859 25.484 19.6659 25.7648 19.6404L27.1136 19.5184C27.3837 19.494 27.6156 19.5733 27.8101 19.7627C28.0054 19.9418 28.1034 20.1641 28.1034 20.4222V25.8926C28.1034 26.1989 28.3178 26.3857 28.6355 26.357L29.6555 26.2646C29.706 26.26 29.7549 26.2442 29.8011 26.2197C30.1051 26.0575 30.1693 25.8511 30.1693 25.7056V20.2351C30.1693 19.978 30.2702 19.7305 30.4632 19.508C30.6567 19.2959 30.8969 19.1759 31.1774 19.1505L32.5258 19.0285C32.7985 19.0038 33.0325 19.0831 33.2401 19.2713C33.4354 19.4503 33.5338 19.6725 33.5338 19.9306V25.4011C33.5338 25.7074 33.7477 25.8942 34.0654 25.8655L35.0679 25.7748C35.3855 25.746 35.5993 25.5204 35.5993 25.2142V19.7437C35.5993 18.9291 35.2881 18.2861 34.6789 17.835C34.0895 17.3811 33.3646 17.1905 32.5257 17.2665L31.1773 17.3885C30.3823 17.4605 29.6979 17.7463 29.1365 18.2393C28.5777 17.8477 27.8985 17.6853 27.1136 17.7564L25.7648 17.8785C24.9334 17.9537 24.2046 18.2747 23.5944 18.8383C23.0038 19.398 22.6913 20.1153 22.6913 20.9121V26.3825C22.6912 26.6889 22.9047 26.8757 23.2223 26.8469ZM34.557 27.3944C34.6497 27.4816 34.7443 27.5965 34.8413 27.7391C34.9383 27.8819 35.0385 28.0307 35.1419 28.1857L38.8321 33.4608V27.8297C38.8321 27.4638 38.9107 27.1828 39.068 26.9867C39.0722 26.9817 39.0768 26.9772 39.0809 26.9722L34.5332 27.3742C34.5411 27.3811 34.5494 27.3873 34.557 27.3944ZM20.2813 18.3748L19.261 18.4672C18.8941 18.5004 18.7296 18.7651 18.7296 19.0121V26.7412C18.7296 27.0474 18.9434 27.2343 19.261 27.2056L20.2813 27.1132C20.5986 27.0845 20.8123 26.8589 20.8123 26.5526V18.8235C20.8123 18.5766 20.6481 18.3416 20.2813 18.3748ZM36.6296 17.552C36.7488 17.4867 36.8474 17.3977 36.9269 17.2967L38.9558 19.3861L37.7457 19.7953C37.7072 19.678 37.6377 19.5724 37.5355 19.4937C37.2361 19.2633 36.7862 19.3367 36.5283 19.6583C36.2712 19.9797 36.3041 20.4271 36.6031 20.6576C36.9016 20.8878 37.3528 20.8134 37.6093 20.4922C37.6803 20.4042 37.7271 20.3069 37.754 20.2062L38.9682 20.7713C38.968 20.7954 38.9645 20.819 38.9645 20.843C38.9645 23.4405 41.0717 25.3556 43.671 25.1203C46.2706 24.885 48.378 22.5884 48.378 19.9908C48.378 17.3933 46.2705 15.4784 43.671 15.7137C42.6968 15.8019 41.7915 16.1798 41.0407 16.7548L40.0153 16.0447C40.091 15.9264 40.1399 15.7903 40.1471 15.6449C40.1671 15.2248 39.8438 14.8977 39.4241 14.9145C39.0055 14.9329 38.6492 15.2887 38.6287 15.7097C38.609 16.1296 38.9321 16.4568 39.3513 16.4385C39.4658 16.4341 39.5748 16.4023 39.6746 16.3525L39.8988 17.7594L37.1261 16.8188C37.1445 16.6645 37.124 16.5071 37.0556 16.3642C36.8557 15.9473 36.3406 15.8032 35.9052 16.042C35.47 16.2807 35.2793 16.8131 35.4795 17.2299C35.6789 17.6468 36.1952 17.7914 36.6296 17.552ZM44.7158 22.02C45.061 21.9888 45.3396 22.2439 45.3396 22.5872C45.3396 22.9319 45.061 23.2365 44.7158 23.2678C44.3707 23.299 44.0919 23.0449 44.0919 22.7002C44.0919 22.3568 44.3707 22.0513 44.7158 22.02ZM42.5451 22.2165C42.8905 22.1853 43.1696 22.4403 43.1696 22.7836C43.1696 23.1283 42.8906 23.4329 42.5451 23.4642C42.2 23.4955 41.9213 23.2413 41.9213 22.8967C41.9213 22.5533 42.1999 22.2477 42.5451 22.2165ZM47.3218 26.2416C47.3058 26.2411 47.2987 26.2408 47.2965 26.2407C47.3 26.2409 47.3116 26.2413 47.3218 26.2416ZM45.8959 27.8279L44.6291 27.9324V34.3581L46.0832 34.2381C46.4019 34.2118 46.6519 34.1825 46.8329 34.1504C47.0138 34.1182 47.2012 34.0597 47.3951 33.9748C47.589 33.89 47.757 33.7793 47.8993 33.6426C48.5412 33.0471 48.8622 32.0865 48.8622 30.7605C48.8622 29.8263 48.7209 29.1383 48.4389 28.6966C48.1566 28.2549 47.8087 27.9877 47.3951 27.8948C46.9816 27.8019 46.4817 27.7796 45.8959 27.8279ZM25.3832 33.7698L28.2138 33.5362L26.7855 29.7471L25.3832 33.7698ZM59.3748 27.2668C59.2827 27.2668 59.2794 27.3324 59.2794 27.3324C59.2795 27.3404 59.2801 27.3484 59.2801 27.3565C59.2801 27.5847 59.1993 27.7969 59.0378 27.9932C58.8762 28.1896 58.6748 28.2977 58.4335 28.3176C58.2138 28.3357 58.0467 28.2946 57.9326 28.1941C57.8184 28.0939 57.6945 27.9243 57.561 27.6856C57.3886 27.3426 57.1818 27.0809 56.9406 26.9005C56.6992 26.7203 56.3115 26.6521 55.7773 26.6962C55.2817 26.7372 54.8822 26.8789 54.5784 27.1212C54.2746 27.3638 54.1228 27.6378 54.1228 27.9435C54.1228 28.133 54.1745 28.2923 54.2779 28.4215C54.3813 28.5508 54.5235 28.6574 54.7044 28.7415C54.8855 28.8257 55.0685 28.8881 55.2538 28.9287C55.439 28.9694 55.745 29.026 56.1715 29.0983C56.7057 29.1792 57.1895 29.277 57.6224 29.392C58.0554 29.5069 58.4238 29.6595 58.7275 29.8497C59.0313 30.0399 59.2681 30.2927 59.4383 30.608C59.4479 30.6257 59.4562 30.6445 59.4652 30.6627V27.3324C59.4653 27.3323 59.4533 27.2668 59.3748 27.2668ZM43.4484 26.5567C43.4101 26.5687 43.3729 26.5815 43.3377 26.5958L43.4484 26.586V26.5567ZM47.3376 26.2421C47.333 26.242 47.3308 26.2419 47.3271 26.2418C47.3329 26.242 47.3376 26.2421 47.3376 26.2421ZM57.9553 34.5564C57.3866 34.8617 56.7123 35.0465 55.9325 35.1108C54.9975 35.188 54.2264 35.0751 53.6188 34.7722C53.188 34.5537 52.8378 34.2436 52.5686 33.8417C52.2993 33.4398 52.1647 33.0387 52.1647 32.6383C52.1647 32.4058 52.2455 32.2001 52.4069 32.021C52.5685 31.8419 52.7742 31.742 53.0241 31.7214C53.2267 31.7047 53.3979 31.7551 53.5379 31.8727C53.6779 31.9904 53.7974 32.1721 53.8966 32.4178C54.0171 32.7093 54.1475 32.9505 54.2875 33.1412C54.4276 33.3321 54.6246 33.4826 54.8789 33.5929C55.133 33.7033 55.467 33.7413 55.8806 33.7072C56.4494 33.6603 56.9114 33.4898 57.2668 33.1957C57.6224 32.9016 57.8 32.5566 57.8 32.1604C57.8 31.8462 57.7042 31.5991 57.5125 31.4189C57.3207 31.2388 57.073 31.1097 56.7693 31.0314C56.4655 30.9532 56.0594 30.8769 55.5511 30.8026C54.8702 30.6996 54.3005 30.5603 53.8416 30.3851C53.3828 30.2098 53.0187 29.9492 52.7495 29.6033C52.4801 29.2574 52.3455 28.8112 52.3455 28.2644C52.3455 27.7435 52.4876 27.269 52.7721 26.8408C53.0564 26.4127 53.4678 26.0677 54.0064 25.8058C54.1573 25.7325 54.3164 25.6679 54.4822 25.6104L47.3374 26.2421C47.599 26.2506 47.8406 26.2737 48.0608 26.3125C48.526 26.3947 48.9483 26.5859 49.3274 26.8861C50.314 27.6485 50.8073 28.8908 50.8073 30.6128C50.8073 31.1811 50.7577 31.704 50.6587 32.1814C50.5596 32.6588 50.4067 33.0945 50.1999 33.4882C49.993 33.882 49.728 34.2408 49.4049 34.5644C49.1506 34.8137 48.8728 35.0196 48.5712 35.1822C48.2696 35.3449 47.9454 35.4686 47.5985 35.553C47.2517 35.6376 46.8607 35.6978 46.4256 35.7338L43.9245 35.9402C43.5755 35.969 43.3126 35.938 43.1361 35.8471C42.9594 35.7562 42.8441 35.6171 42.7903 35.43C42.7363 35.2429 42.7094 34.9965 42.7094 34.6908V27.7486C42.7094 27.3352 42.8021 27.0284 42.9874 26.8281C43.0772 26.731 43.1943 26.6539 43.3375 26.5958L40.3368 26.8612C40.3435 26.8678 40.3507 26.8735 40.3572 26.8804C40.5165 27.0503 40.5962 27.3182 40.5962 27.684V35.1299C40.5962 35.9609 40.2515 36.4047 39.5622 36.4616C39.3899 36.4759 39.2348 36.4638 39.0969 36.4258C38.959 36.3876 38.8297 36.3197 38.7092 36.222C38.5884 36.1244 38.4765 36.0078 38.3732 35.872C38.2697 35.7363 38.1663 35.5974 38.0629 35.4552L34.4632 30.2372V35.7846C34.4632 36.1462 34.3792 36.4265 34.2111 36.6254C34.0431 36.8244 33.8276 36.9348 33.5649 36.9565C33.2934 36.9789 33.0758 36.9032 32.9121 36.7294C32.7483 36.5556 32.6665 36.2902 32.6665 35.9328V28.6289C32.6665 28.3189 32.701 28.0729 32.7699 27.8906C32.8287 27.7467 32.9157 27.619 33.03 27.5071L27.7125 27.9773C27.7834 28.0359 27.8461 28.1022 27.9003 28.1762C28.0102 28.3264 28.1028 28.49 28.1782 28.6666C28.2536 28.8435 28.3495 29.0798 28.4658 29.3759L30.941 35.2807C31.135 35.7297 31.2319 36.0597 31.2319 36.2707C31.2319 36.4902 31.1403 36.699 30.9572 36.8972C30.7741 37.0951 30.5534 37.2049 30.2948 37.2263C30.1439 37.2387 30.0147 37.2224 29.9071 37.1775C29.7993 37.1325 29.7089 37.067 29.6357 36.9804C29.5623 36.8939 29.4838 36.7583 29.3997 36.5736C29.3157 36.3891 29.2435 36.2259 29.1832 36.0845L28.7308 34.9337L24.8791 35.2514L24.4267 36.5029C24.25 36.9911 24.0992 37.3232 23.9743 37.4992C23.8492 37.6751 23.6447 37.775 23.3603 37.7984C23.119 37.8183 22.9057 37.7476 22.7205 37.5864C22.5352 37.4252 22.4427 37.2326 22.4427 37.0088C22.4427 36.8796 22.4641 36.7444 22.5072 36.603C22.5502 36.4617 22.6214 36.2642 22.7205 36.0107L25.1441 29.6628C25.2129 29.4807 25.2959 29.2618 25.3928 29.0062C25.4898 28.7507 25.5931 28.5366 25.703 28.3639C25.7548 28.2826 25.8144 28.2079 25.8814 28.1391L19.664 28.6889C19.7167 28.7044 19.7685 28.721 19.8187 28.7397C20.116 28.84 20.3787 28.9969 20.6072 29.2106C20.8355 29.4242 21.0089 29.6802 21.1274 29.9781C21.2459 30.2762 21.3052 30.5974 21.3052 30.9418C21.3052 31.6478 21.1058 32.2283 20.7073 32.6831C20.3087 33.138 19.7045 33.487 18.8946 33.7304C19.2348 33.8831 19.5602 34.1233 19.8705 34.4506C20.1807 34.778 20.4574 35.1308 20.7009 35.5089C20.9442 35.8872 21.1339 36.231 21.2696 36.5405C21.4054 36.8501 21.4732 37.0652 21.4732 37.1856C21.4732 37.3105 21.4333 37.4375 21.3536 37.5669C21.2738 37.6961 21.1651 37.802 21.0272 37.8844C20.8893 37.9668 20.73 38.0155 20.549 38.0304C20.3335 38.0482 20.1525 38.0124 20.0062 37.9234C19.8595 37.8343 19.7336 37.7166 19.6281 37.5704C19.5224 37.4241 19.3793 37.2077 19.1983 36.9213L18.4292 35.7061C18.1535 35.2596 17.9068 34.9226 17.6893 34.6952C17.4717 34.4677 17.2508 34.3181 17.0269 34.2461C16.8028 34.1742 16.5205 34.1523 16.1802 34.1803L15.5081 34.2358V37.2775C15.5081 37.6779 15.4197 37.9801 15.2432 38.1841C15.0664 38.3881 14.836 38.5019 14.5516 38.5253C14.2457 38.5506 14.0088 38.4711 13.8407 38.2869C13.6727 38.1028 13.5887 37.8191 13.5887 37.4359V30.1515C13.5887 29.7381 13.6813 29.4313 13.8666 29.2309C13.8771 29.2196 13.8893 29.2094 13.9005 29.1986L10.1073 29.534C10.1984 29.5668 10.2862 29.6046 10.3703 29.6485C10.5943 29.7635 10.7925 29.9162 10.9649 30.1064C11.1371 30.2968 11.2686 30.512 11.3591 30.752C11.4495 30.9921 11.4948 31.2499 11.4948 31.5254C11.4948 32.4726 11.0208 33.2048 10.073 33.7221C11.3181 34.0155 11.9407 34.7348 11.9407 35.8799C11.9407 36.4095 11.805 36.8975 11.5336 37.3439C11.2621 37.7904 10.8959 38.1339 10.435 38.3742C10.1463 38.5186 9.81452 38.631 9.43967 38.7114C9.06482 38.7919 8.62748 38.8527 8.1277 38.8939L5.23237 39.1328C4.81437 39.1673 4.51602 39.0983 4.3373 38.9257C4.32008 38.9091 4.30389 38.891 4.28832 38.8721V39.247C4.28832 39.247 4.32413 39.3161 4.39383 39.3344C6.7684 39.9564 48.4288 50.8705 48.4288 50.8705L59.4653 33.4896V32.9567C59.4053 33.1006 59.3348 33.2411 59.2511 33.3775C58.9559 33.8584 58.524 34.2512 57.9553 34.5564ZM59.4806 32.92C59.4767 32.9294 59.4724 32.9398 59.4676 32.9513C59.4702 32.9449 59.4751 32.9333 59.4806 32.92ZM63.1603 15.2566C62.5706 14.8028 61.846 14.6122 61.007 14.6881C59.9564 14.7832 59.1648 14.9208 58.6416 15.102C58.2683 15.2445 58.2281 15.5232 58.2281 15.6361V16.3272C58.2281 16.4613 58.2636 16.5718 58.3327 16.6556C58.4213 16.7618 58.5536 16.8124 58.7058 16.7986C58.731 16.7963 58.7921 16.7856 58.8168 16.7782C59.2221 16.6547 59.959 16.545 61.0071 16.4501C61.2773 16.4257 61.5095 16.5051 61.704 16.6945C61.8996 16.8734 61.9977 17.0957 61.9977 17.3538V17.8109L59.6586 18.0226C58.818 18.0987 58.0883 18.4262 57.4879 18.9972C56.889 19.5661 56.5851 20.2583 56.5851 21.0552C56.5851 21.8627 56.8947 22.5105 57.5055 22.9813C58.0946 23.4329 58.8188 23.6245 59.6586 23.5485L63.5492 23.1964C63.8519 23.169 64.0634 22.9386 64.0634 22.6374V17.1668C64.0634 16.3712 63.7509 15.7102 63.1603 15.2566ZM61.9976 21.5599L59.6586 21.7717C59.378 21.797 59.1381 21.7207 58.9445 21.5424C58.7494 21.3633 58.6506 21.1373 58.6506 20.8682C58.6506 20.6099 58.7494 20.3697 58.9445 20.1567C59.1381 19.9446 59.378 19.8246 59.6586 19.7992L61.9976 19.5874V21.5599ZM15.5081 32.8603L17.2272 32.7186C17.6882 32.6805 18.076 32.6088 18.3905 32.5031C18.705 32.3975 18.9452 32.2421 19.1111 32.0368C19.2769 31.8316 19.3598 31.5609 19.3598 31.2251C19.3598 30.9626 19.293 30.7366 19.1595 30.5474C19.0259 30.3582 18.8407 30.224 18.6037 30.1445C18.3796 30.0683 17.938 30.0573 17.2788 30.1117L15.508 30.2577V32.8603H15.5081ZM9.49133 34.9003C9.15531 34.7128 8.65327 34.6465 7.98556 34.7016L5.98858 34.8664V37.6303L8.05018 37.4602C9.34699 37.3532 9.9955 36.8326 9.9955 35.8983C9.99543 35.4205 9.82742 35.0878 9.49133 34.9003ZM9.90508 28.0525L10.9082 27.9617C11.2258 27.9329 11.4389 27.7074 11.4389 27.4011V21.9306C11.4389 21.6746 11.5398 21.427 11.7328 21.2034C11.9263 20.9914 12.1664 20.8714 12.4469 20.846L13.796 20.7239C14.0661 20.6994 14.2977 20.779 14.4926 20.9682C14.6877 21.1473 14.7861 21.3695 14.7861 21.6276V27.0981C14.7861 27.4043 14.9998 27.5912 15.3175 27.5625L16.3382 27.47C16.6405 27.4427 16.852 27.2122 16.852 26.9111V21.4406C16.852 20.6261 16.5406 19.9831 15.9316 19.532C15.3423 19.0781 14.6239 18.887 13.796 18.9619L12.4469 19.084C11.6162 19.1592 10.887 19.4803 10.2768 20.0439C9.68616 20.6036 9.37368 21.3209 9.37368 22.1176V27.5881C9.37374 27.8943 9.58744 28.0812 9.90508 28.0525ZM10.1073 29.534C10.1033 29.5325 10.1011 29.5318 10.098 29.5306C10.1032 29.5325 10.1073 29.534 10.1073 29.534ZM5.98852 33.4908L7.74641 33.3458C8.22464 33.3064 8.594 33.2307 8.85476 33.1187C9.11538 33.0068 9.31468 32.8182 9.45257 32.5528C9.56021 32.363 9.61413 32.1563 9.61413 31.9324C9.61413 31.4545 9.44386 31.1512 9.10358 31.022C8.76324 30.8929 8.24405 30.8572 7.54608 30.9148L5.98858 31.0432V33.4908H5.98852ZM7.47885 27.7596V22.2891C7.47885 21.4935 7.1665 20.8325 6.57548 20.3789C5.98577 19.9251 5.26091 19.7345 4.4223 19.8104C3.37158 19.9055 2.57996 20.0431 2.05638 20.2243C1.68332 20.3669 1.64325 20.6455 1.64325 20.7584V21.4496C1.64325 21.5836 1.67879 21.6941 1.74753 21.778C1.83617 21.8841 1.96878 21.9347 2.12094 21.9209C2.14598 21.9187 2.20717 21.9079 2.23166 21.9005C2.63759 21.7769 3.37418 21.6673 4.4223 21.5724C4.69205 21.548 4.92462 21.6274 5.11952 21.8168C5.31435 21.9958 5.41273 22.2181 5.41273 22.4761V22.9333L3.07391 23.1449C2.23365 23.221 1.50358 23.5485 0.903505 24.1194C0.303981 24.6884 0 25.3807 0 26.1775C0 26.9849 0.309881 27.6334 0.920999 28.1035C1.50975 28.5551 2.234 28.7467 3.07391 28.6707L6.96447 28.3186C7.26742 28.2912 7.47885 28.0608 7.47885 27.7596ZM5.41266 26.6823L3.07384 26.894C2.79332 26.9194 2.55286 26.8431 2.35975 26.6647C2.16423 26.4857 2.06585 26.2596 2.06585 25.9905C2.06585 25.7323 2.16423 25.4921 2.35975 25.2791C2.55286 25.067 2.79332 24.9469 3.07384 24.9215L5.41266 24.7098V26.6823Z" fill="#12ACEC"></path></g><defs><clipPath id="clip0_4713_24290"><rect width="64" height="64" fill="white"></rect></clipPath></defs></svg> 