<?xml version="1.0" encoding="UTF-8"?> <svg xmlns="http://www.w3.org/2000/svg" width="64" height="64" viewBox="0 0 64 64" fill="none"><g clip-path="url(#clip0_4713_24297)"><path d="M29.4929 63.7799C29.4714 63.78 29.4504 63.7865 29.4326 63.7985C29.4148 63.8105 29.401 63.8275 29.3928 63.8474C29.3846 63.8673 29.3825 63.8891 29.3867 63.9102C29.391 63.9312 29.4013 63.9506 29.4165 63.9658C29.4317 63.9809 29.451 63.9913 29.4721 63.9955C29.4932 63.9997 29.515 63.9976 29.5349 63.9895C29.5547 63.9813 29.5717 63.9674 29.5837 63.9496C29.5958 63.9318 29.6022 63.9108 29.6023 63.8894C29.6023 63.8603 29.5908 63.8325 29.5703 63.812C29.5498 63.7914 29.5219 63.7799 29.4929 63.7799V63.7799ZM26.4619 62.7291C26.4333 62.7289 26.4049 62.7344 26.3784 62.7452C26.3519 62.756 26.3278 62.772 26.3076 62.7922C26.2873 62.8124 26.2713 62.8364 26.2604 62.8629C26.2495 62.8893 26.244 62.9177 26.2441 62.9463C26.2439 62.9895 26.2565 63.0319 26.2804 63.068C26.3043 63.104 26.3383 63.1322 26.3782 63.1489C26.4181 63.1656 26.4621 63.17 26.5045 63.1617C26.547 63.1533 26.586 63.1326 26.6166 63.102C26.6472 63.0715 26.6681 63.0325 26.6766 62.9901C26.685 62.9477 26.6807 62.9037 26.6641 62.8638C26.6475 62.8238 26.6194 62.7897 26.5834 62.7657C26.5474 62.7418 26.5051 62.729 26.4619 62.7291V62.7291ZM23.5468 61.3636C23.4624 61.3672 23.3826 61.4033 23.3241 61.4643C23.2656 61.5253 23.2329 61.6066 23.2329 61.6911C23.2329 61.7756 23.2656 61.8569 23.3241 61.9179C23.3826 61.9789 23.4624 62.015 23.5468 62.0186C23.591 62.0204 23.6351 62.0134 23.6764 61.9978C23.7178 61.9822 23.7556 61.9583 23.7875 61.9277C23.8194 61.8971 23.8448 61.8604 23.8622 61.8197C23.8796 61.7791 23.8885 61.7353 23.8885 61.6911C23.8885 61.6469 23.8796 61.6031 23.8622 61.5624C23.8448 61.5218 23.8194 61.485 23.7875 61.4545C23.7556 61.4239 23.7178 61.4 23.6764 61.3844C23.6351 61.3688 23.591 61.3617 23.5468 61.3636V61.3636ZM20.7802 59.6975C20.6938 59.6979 20.6095 59.7238 20.5378 59.7721C20.4662 59.8203 20.4104 59.8887 20.3776 59.9687C20.3447 60.0486 20.3363 60.1364 20.3534 60.2211C20.3705 60.3058 20.4123 60.3836 20.4735 60.4445C20.5347 60.5055 20.6126 60.547 20.6974 60.5637C20.7821 60.5804 20.87 60.5717 20.9497 60.5385C21.0295 60.5054 21.0977 60.4493 21.1457 60.3775C21.1937 60.3056 21.2192 60.2212 21.2192 60.1348C21.2193 60.0772 21.208 60.0201 21.186 59.9669C21.1639 59.9137 21.1315 59.8654 21.0907 59.8248C21.0499 59.7841 21.0015 59.752 20.9482 59.7301C20.8949 59.7083 20.8378 59.6972 20.7802 59.6975V59.6975ZM18.1941 57.7516C18.086 57.7515 17.9802 57.7834 17.8902 57.8435C17.8002 57.9035 17.73 57.9889 17.6886 58.0888C17.6471 58.1887 17.6363 58.2987 17.6573 58.4048C17.6784 58.5109 17.7305 58.6083 17.807 58.6848C17.8835 58.7613 17.9809 58.8134 18.087 58.8345C18.1931 58.8556 18.3031 58.8447 18.403 58.8032C18.5029 58.7618 18.5883 58.6916 18.6483 58.6016C18.7084 58.5116 18.7404 58.4059 18.7402 58.2977C18.7402 58.1529 18.6827 58.0139 18.5803 57.9115C18.4779 57.8091 18.339 57.7516 18.1941 57.7516ZM15.8139 55.5394C15.6844 55.5398 15.5579 55.5785 15.4504 55.6506C15.3429 55.7228 15.2591 55.8252 15.2097 55.9449C15.1603 56.0646 15.1475 56.1963 15.1728 56.3233C15.1982 56.4503 15.2606 56.5669 15.3522 56.6585C15.4437 56.7501 15.5604 56.8125 15.6874 56.8378C15.8144 56.8632 15.946 56.8503 16.0658 56.8009C16.1855 56.7515 16.2879 56.6678 16.36 56.5603C16.4322 56.4527 16.4709 56.3262 16.4713 56.1967C16.4716 56.1103 16.4548 56.0247 16.4219 55.9448C16.3889 55.8649 16.3405 55.7923 16.2794 55.7312C16.2183 55.6701 16.1457 55.6217 16.0659 55.5888C15.986 55.5559 15.9003 55.5391 15.8139 55.5394V55.5394ZM13.6692 53.0918C13.5181 53.0926 13.3706 53.1381 13.2453 53.2227C13.1201 53.3072 13.0227 53.427 12.9654 53.5669C12.9081 53.7067 12.8936 53.8604 12.9236 54.0085C12.9535 54.1566 13.0267 54.2926 13.1339 54.3991C13.241 54.5057 13.3773 54.5782 13.5256 54.6073C13.6739 54.6365 13.8275 54.6211 13.967 54.5631C14.1066 54.5051 14.2258 54.407 14.3097 54.2813C14.3936 54.1556 14.4383 54.0079 14.4383 53.8568C14.4384 53.7559 14.4184 53.6561 14.3797 53.563C14.341 53.47 14.2843 53.3854 14.2128 53.3143C14.1413 53.2433 14.0565 53.187 13.9632 53.1488C13.8699 53.1106 13.77 53.0912 13.6692 53.0918V53.0918ZM11.7854 50.4252C11.6122 50.4252 11.4429 50.4765 11.2989 50.5728C11.1549 50.669 11.0427 50.8057 10.9764 50.9657C10.9101 51.1257 10.8928 51.3018 10.9266 51.4717C10.9604 51.6415 11.0438 51.7975 11.1662 51.92C11.2887 52.0425 11.4447 52.1259 11.6146 52.1596C11.7844 52.1934 11.9605 52.1761 12.1205 52.1098C12.2805 52.0435 12.4172 51.9313 12.5135 51.7873C12.6097 51.6433 12.661 51.474 12.661 51.3008C12.6611 51.1858 12.6385 51.0719 12.5945 50.9656C12.5506 50.8594 12.4861 50.7628 12.4047 50.6815C12.3234 50.6002 12.2268 50.5357 12.1206 50.4917C12.0143 50.4477 11.9004 50.4251 11.7854 50.4252V50.4252ZM11.2251 48.5272C11.2251 48.3325 11.1674 48.1422 11.0592 47.9803C10.9511 47.8184 10.7973 47.6922 10.6175 47.6177C10.4376 47.5431 10.2397 47.5236 10.0487 47.5615C9.85778 47.5995 9.68236 47.6932 9.54465 47.8308C9.40694 47.9684 9.31313 48.1438 9.27508 48.3347C9.23702 48.5257 9.25643 48.7236 9.33086 48.9035C9.40528 49.0834 9.53138 49.2372 9.6932 49.3455C9.85502 49.4537 10.0453 49.5116 10.24 49.5117C10.501 49.5112 10.7512 49.4074 10.9358 49.2228C11.1205 49.0383 11.2245 48.7882 11.2251 48.5272V48.5272ZM10.1696 45.5742C10.1697 45.3579 10.1057 45.1464 9.98564 44.9665C9.86558 44.7866 9.69487 44.6462 9.49509 44.5633C9.29531 44.4804 9.07543 44.4585 8.86323 44.5005C8.65103 44.5425 8.45605 44.6465 8.30292 44.7993C8.1498 44.9521 8.04541 45.1468 8.00295 45.3589C7.96049 45.571 7.98187 45.791 8.06438 45.9909C8.14689 46.1909 8.28683 46.3619 8.46651 46.4823C8.64619 46.6028 8.85754 46.6673 9.07386 46.6676C9.2176 46.6678 9.35996 46.6396 9.49282 46.5847C9.62567 46.5299 9.74642 46.4494 9.84817 46.3479C9.94992 46.2463 10.0307 46.1258 10.0858 45.993C10.141 45.8603 10.1694 45.718 10.1696 45.5742V45.5742ZM9.51109 42.4947C9.51109 42.2567 9.44051 42.024 9.30828 41.8261C9.17604 41.6282 8.98809 41.474 8.7682 41.3829C8.5483 41.2918 8.30634 41.268 8.0729 41.3144C7.83946 41.3608 7.62503 41.4755 7.45673 41.6438C7.28843 41.8121 7.17381 42.0265 7.12738 42.2599C7.08094 42.4934 7.10478 42.7353 7.19586 42.9552C7.28694 43.1751 7.44119 43.3631 7.63909 43.4953C7.83699 43.6275 8.06966 43.6981 8.30767 43.6981C8.62679 43.698 8.93279 43.5711 9.15844 43.3455C9.38409 43.1198 9.51093 42.8138 9.51109 42.4947V42.4947ZM9.26319 39.3448C9.26354 39.0851 9.18686 38.8312 9.04285 38.6152C8.89884 38.3991 8.69398 38.2306 8.45419 38.131C8.2144 38.0315 7.95046 38.0053 7.69577 38.0557C7.44108 38.1062 7.20708 38.2311 7.0234 38.4146C6.83973 38.5982 6.71461 38.832 6.6639 39.0867C6.61319 39.3413 6.63916 39.6053 6.73852 39.8452C6.83788 40.085 7.00617 40.2901 7.22209 40.4343C7.43801 40.5785 7.69185 40.6554 7.9515 40.6553C8.12372 40.6555 8.29429 40.6218 8.45346 40.556C8.61263 40.4902 8.75727 40.3937 8.8791 40.272C9.00094 40.1503 9.09757 40.0057 9.16348 39.8466C9.22938 39.6875 9.26326 39.517 9.26319 39.3448ZM8.00889 37.5899C8.28973 37.5899 8.56426 37.5066 8.79778 37.3506C9.03129 37.1946 9.21329 36.9728 9.32076 36.7134C9.42823 36.4539 9.45635 36.1684 9.40156 35.8929C9.34677 35.6175 9.21154 35.3645 9.01295 35.1659C8.81437 34.9673 8.56135 34.8321 8.28591 34.7773C8.01046 34.7225 7.72496 34.7506 7.46549 34.8581C7.20603 34.9656 6.98426 35.1476 6.82823 35.3811C6.67221 35.6146 6.58893 35.8891 6.58893 36.17C6.58893 36.5466 6.73853 36.9077 7.00483 37.174C7.27112 37.4403 7.63229 37.5899 8.00889 37.5899Z" fill="#2C56DD"></path><path d="M6.95301 33.0312C6.95325 33.3339 7.04323 33.6298 7.21158 33.8813C7.37993 34.1329 7.6191 34.3289 7.89883 34.4445C8.17857 34.5602 8.48631 34.5903 8.78316 34.531C9.08 34.4718 9.35262 34.3259 9.56653 34.1117C9.78045 33.8976 9.92606 33.6248 9.98496 33.3279C10.0439 33.0309 10.0134 32.7232 9.89742 32.4436C9.78144 32.164 9.58517 31.9251 9.33341 31.757C9.08165 31.589 8.78572 31.4993 8.48302 31.4995C8.2819 31.4993 8.08273 31.5388 7.89692 31.6158C7.7111 31.6927 7.54229 31.8056 7.40016 31.9479C7.25804 32.0902 7.14538 32.2591 7.06865 32.445C6.99192 32.6309 6.95262 32.8301 6.95301 33.0312ZM52.8917 56.4724C52.8724 56.4723 52.8536 56.4779 52.8376 56.4885C52.8215 56.4991 52.809 56.5143 52.8016 56.532C52.7942 56.5498 52.7922 56.5694 52.7959 56.5882C52.7996 56.6071 52.8089 56.6244 52.8225 56.6381C52.8361 56.6517 52.8534 56.6609 52.8723 56.6646C52.8912 56.6684 52.9108 56.6664 52.9285 56.659C52.9463 56.6516 52.9614 56.639 52.972 56.623C52.9826 56.6069 52.9882 56.5881 52.9881 56.5689C52.9877 56.5434 52.9774 56.5192 52.9594 56.5012C52.9414 56.4832 52.9171 56.4729 52.8917 56.4724V56.4724ZM50.0808 57.8516C50.0553 57.8512 50.03 57.8558 50.0064 57.8653C49.9828 57.8747 49.9613 57.8888 49.9431 57.9066C49.9249 57.9244 49.9105 57.9457 49.9006 57.9692C49.8907 57.9926 49.8856 58.0178 49.8855 58.0432C49.8841 58.0697 49.888 58.0961 49.8971 58.121C49.9062 58.1458 49.9203 58.1685 49.9385 58.1878C49.9567 58.207 49.9786 58.2223 50.0029 58.2328C50.0272 58.2432 50.0534 58.2486 50.0799 58.2486C50.1063 58.2486 50.1325 58.2432 50.1568 58.2328C50.1811 58.2223 50.2031 58.207 50.2213 58.1878C50.2394 58.1685 50.2535 58.1458 50.2626 58.121C50.2717 58.0961 50.2757 58.0697 50.2742 58.0432C50.2739 57.9922 50.2534 57.9433 50.2171 57.9074C50.1808 57.8715 50.1318 57.8514 50.0808 57.8516V57.8516ZM47.1314 58.9284C47.0543 58.9284 46.9805 58.959 46.926 59.0134C46.8715 59.0679 46.8409 59.1418 46.8409 59.2189C46.8409 59.2959 46.8715 59.3698 46.926 59.4243C46.9805 59.4788 47.0543 59.5094 47.1314 59.5094C47.2084 59.5094 47.2823 59.4788 47.3368 59.4243C47.3913 59.3698 47.4219 59.2959 47.4219 59.2189C47.4219 59.1418 47.3913 59.0679 47.3368 59.0134C47.2823 58.959 47.2084 58.9284 47.1314 58.9284ZM44.0743 59.688C43.9744 59.6919 43.8799 59.7344 43.8106 59.8065C43.7412 59.8786 43.7025 59.9747 43.7025 60.0747C43.7025 60.1747 43.7412 60.2708 43.8106 60.3429C43.8799 60.415 43.9744 60.4574 44.0743 60.4613C44.1264 60.4634 44.1783 60.4549 44.227 60.4364C44.2757 60.4178 44.3201 60.3897 44.3577 60.3536C44.3952 60.3175 44.4251 60.2742 44.4455 60.2262C44.4659 60.1783 44.4764 60.1268 44.4764 60.0747C44.4764 60.0226 44.4659 59.971 44.4455 59.9231C44.4251 59.8752 44.3952 59.8319 44.3577 59.7958C44.3201 59.7597 44.2757 59.7315 44.227 59.713C44.1783 59.6945 44.1264 59.686 44.0743 59.688V59.688ZM40.9457 60.1193C40.8497 60.1184 40.7556 60.146 40.6754 60.1987C40.5952 60.2513 40.5324 60.3267 40.4951 60.4151C40.4578 60.5035 40.4476 60.601 40.4658 60.6952C40.484 60.7895 40.5299 60.8761 40.5975 60.9442C40.6651 61.0124 40.7514 61.0588 40.8455 61.0778C40.9396 61.0967 41.0372 61.0872 41.1259 61.0505C41.2146 61.0139 41.2903 60.9517 41.3436 60.8718C41.3968 60.792 41.4251 60.6981 41.4249 60.6021C41.4245 60.4748 41.3739 60.3528 41.2843 60.2625C41.1946 60.1722 41.073 60.1207 40.9457 60.1193V60.1193ZM37.778 60.2199C37.6634 60.2199 37.5513 60.2539 37.456 60.3176C37.3607 60.3812 37.2863 60.4717 37.2424 60.5776C37.1985 60.6835 37.1869 60.8 37.2092 60.9124C37.2315 61.0249 37.2866 61.1282 37.3676 61.2093C37.4485 61.2905 37.5518 61.3458 37.6641 61.3683C37.7765 61.3908 37.8931 61.3795 37.9991 61.3358C38.105 61.2921 38.1957 61.2179 38.2595 61.1227C38.3234 61.0275 38.3576 60.9156 38.3578 60.8009C38.3582 60.7246 38.3435 60.649 38.3145 60.5784C38.2855 60.5078 38.2428 60.4437 38.1889 60.3896C38.135 60.3356 38.071 60.2928 38.0004 60.2637C37.9299 60.2346 37.8543 60.2197 37.778 60.2199V60.2199ZM34.6038 59.988C34.4701 59.9884 34.3394 60.0283 34.2284 60.1029C34.1174 60.1775 34.031 60.2833 33.9802 60.407C33.9293 60.5306 33.9162 60.6666 33.9426 60.7977C33.969 60.9288 34.0337 61.0491 34.1284 61.1435C34.2232 61.2378 34.3438 61.302 34.475 61.3278C34.6062 61.3536 34.7421 61.3399 34.8656 61.2885C34.989 61.2371 35.0945 61.1502 35.1685 61.0389C35.2426 60.9276 35.2821 60.7968 35.2818 60.6631C35.2818 60.5742 35.2643 60.4861 35.2301 60.4041C35.196 60.322 35.146 60.2474 35.083 60.1847C35.02 60.122 34.9453 60.0723 34.863 60.0385C34.7808 60.0048 34.6927 59.9876 34.6038 59.988V59.988ZM31.468 59.4153C31.3149 59.4153 31.1652 59.4607 31.038 59.5459C30.9107 59.6311 30.8116 59.7521 30.7532 59.8936C30.6948 60.0352 30.6798 60.1908 30.7099 60.341C30.7401 60.4911 30.8142 60.6289 30.9227 60.7368C31.0313 60.8448 31.1695 60.9181 31.3197 60.9475C31.47 60.9769 31.6256 60.961 31.7668 60.9018C31.9081 60.8426 32.0286 60.7429 32.113 60.6152C32.1975 60.4875 32.2421 60.3375 32.2413 60.1844C32.2405 59.98 32.1587 59.7842 32.0137 59.64C31.8687 59.4958 31.6725 59.415 31.468 59.4153ZM28.4139 58.4497C28.2422 58.4499 28.0743 58.5011 27.9316 58.5967C27.7889 58.6924 27.6778 58.8282 27.6122 58.987C27.5467 59.1458 27.5298 59.3204 27.5635 59.4889C27.5972 59.6573 27.6802 59.8119 27.8018 59.9332C27.9234 60.0545 28.0783 60.1371 28.2468 60.1703C28.4154 60.2036 28.59 60.1862 28.7486 60.1202C28.9072 60.0543 29.0427 59.9428 29.1379 59.7998C29.2332 59.6568 29.2839 59.4889 29.2837 59.3171C29.283 59.0868 29.1911 58.8662 29.0281 58.7036C28.8651 58.541 28.6442 58.4497 28.4139 58.4497V58.4497ZM25.503 57.0901C25.3118 57.0897 25.1248 57.1461 24.9657 57.2521C24.8066 57.3581 24.6825 57.5089 24.6091 57.6854C24.5357 57.862 24.5163 58.0563 24.5535 58.2439C24.5906 58.4314 24.6825 58.6037 24.8176 58.739C24.9528 58.8743 25.125 58.9664 25.3125 59.0038C25.5 59.0412 25.6943 59.022 25.871 58.9489C26.0476 58.8757 26.1986 58.7518 26.3047 58.5928C26.4109 58.4338 26.4675 58.2469 26.4674 58.0557C26.4675 57.9289 26.4426 57.8035 26.3942 57.6863C26.3458 57.5692 26.2747 57.4628 26.1852 57.3732C26.0956 57.2835 25.9893 57.2123 25.8723 57.1638C25.7552 57.1152 25.6297 57.0902 25.503 57.0901V57.0901ZM23.8446 56.4192C23.8446 56.2085 23.7822 56.0026 23.6651 55.8275C23.5481 55.6524 23.3818 55.5159 23.1872 55.4353C22.9926 55.3547 22.7785 55.3336 22.5719 55.3747C22.3653 55.4158 22.1755 55.5172 22.0266 55.6661C21.8777 55.8151 21.7762 56.0048 21.7351 56.2114C21.6941 56.418 21.7151 56.6321 21.7958 56.8267C21.8764 57.0213 22.0129 57.1876 22.188 57.3047C22.3631 57.4217 22.569 57.4841 22.7797 57.4841C22.9196 57.4846 23.0583 57.4574 23.1878 57.404C23.3172 57.3507 23.4348 57.2722 23.5337 57.1733C23.6327 57.0743 23.7112 56.9567 23.7645 56.8273C23.8179 56.6978 23.8451 56.5592 23.8446 56.4192V56.4192ZM20.3012 53.284C20.072 53.2838 19.8479 53.3515 19.6572 53.4787C19.4666 53.6059 19.3179 53.7868 19.2301 53.9985C19.1422 54.2102 19.1191 54.4431 19.1638 54.668C19.2084 54.8928 19.3187 55.0993 19.4807 55.2614C19.6427 55.4235 19.8492 55.5339 20.074 55.5786C20.2988 55.6234 20.5318 55.6004 20.7435 55.5127C20.9552 55.4249 21.1362 55.2764 21.2635 55.0858C21.3907 54.8951 21.4586 54.6711 21.4585 54.4419C21.4576 54.1352 21.3354 53.8413 21.1185 53.6244C20.9017 53.4075 20.6079 53.2851 20.3012 53.284V53.284ZM18.0967 50.9003C17.848 50.8999 17.6047 50.9734 17.3977 51.1113C17.1907 51.2493 17.0293 51.4455 16.9339 51.6753C16.8385 51.905 16.8133 52.1579 16.8617 52.4019C16.9101 52.6459 17.0297 52.8701 17.2055 53.0461C17.3814 53.2221 17.6054 53.342 17.8494 53.3906C18.0934 53.4391 18.3463 53.4143 18.5761 53.3191C18.8059 53.2239 19.0023 53.0626 19.1405 52.8558C19.2787 52.6489 19.3523 52.4057 19.3522 52.1569C19.3522 51.8238 19.22 51.5044 18.9846 51.2687C18.7492 51.0331 18.4298 50.9006 18.0967 50.9003ZM16.2123 50.9582C16.48 50.9585 16.7417 50.8793 16.9643 50.7308C17.187 50.5823 17.3606 50.3711 17.4632 50.1239C17.5658 49.8767 17.5928 49.6046 17.5408 49.3421C17.4888 49.0796 17.3601 48.8383 17.1709 48.649C16.9818 48.4596 16.7408 48.3306 16.4783 48.2782C16.2158 48.2258 15.9437 48.2525 15.6964 48.3547C15.4491 48.457 15.2376 48.6304 15.0888 48.8528C14.94 49.0753 14.8605 49.3369 14.8604 49.6045C14.8599 49.7823 14.8946 49.9584 14.9623 50.1227C15.0301 50.2871 15.1296 50.4364 15.2552 50.5622C15.3808 50.6879 15.53 50.7877 15.6943 50.8556C15.8585 50.9236 16.0346 50.9585 16.2123 50.9582V50.9582ZM16.1206 46.8297C16.1204 46.5434 16.0353 46.2637 15.8761 46.0257C15.7169 45.7878 15.4907 45.6025 15.2262 45.493C14.9617 45.3836 14.6707 45.3551 14.3899 45.411C14.1092 45.467 13.8513 45.6049 13.6489 45.8074C13.4465 46.0098 13.3087 46.2677 13.2529 46.5485C13.1971 46.8293 13.2257 47.1203 13.3352 47.3848C13.4448 47.6493 13.6302 47.8753 13.8682 48.0345C14.1062 48.1936 14.386 48.2785 14.6723 48.2787C15.0565 48.2785 15.4248 48.1258 15.6965 47.8541C15.9681 47.5823 16.1206 47.2139 16.1206 46.8297V46.8297ZM64.2573 34.7618C64.2345 34.7616 64.2125 34.7704 64.196 34.7862C64.1795 34.802 64.1699 34.8236 64.1691 34.8464C64.1694 34.8698 64.1788 34.8921 64.1953 34.9086C64.2117 34.9252 64.2339 34.9347 64.2573 34.9352C64.2688 34.935 64.2801 34.9326 64.2906 34.928C64.3012 34.9235 64.3107 34.9169 64.3187 34.9086C64.3266 34.9004 64.3329 34.8907 64.3371 34.88C64.3413 34.8693 64.3433 34.8579 64.3431 34.8464C64.3431 34.8352 64.3409 34.8241 64.3365 34.8138C64.3322 34.8034 64.3259 34.794 64.3179 34.7862C64.3099 34.7783 64.3004 34.7721 64.29 34.7679C64.2796 34.7637 64.2685 34.7617 64.2573 34.7618V34.7618ZM63.3136 37.7065C63.2795 37.7062 63.2461 37.7161 63.2176 37.7349C63.1891 37.7537 63.1668 37.7806 63.1536 37.8121C63.1405 37.8435 63.1369 37.8782 63.1435 37.9117C63.15 37.9452 63.1664 37.976 63.1905 38.0002C63.2146 38.0243 63.2453 38.0408 63.2788 38.0475C63.3122 38.0541 63.3469 38.0507 63.3784 38.0376C63.41 38.0245 63.4369 38.0024 63.4558 37.974C63.4747 37.9456 63.4847 37.9122 63.4846 37.878C63.4847 37.8555 63.4803 37.8332 63.4717 37.8124C63.4632 37.7916 63.4506 37.7727 63.4347 37.7567C63.4188 37.7408 63.4 37.7282 63.3792 37.7195C63.3584 37.7109 63.3361 37.7065 63.3136 37.7065V37.7065ZM62.0563 40.5328C62.0049 40.5331 61.9547 40.5487 61.9121 40.5775C61.8696 40.6064 61.8365 40.6472 61.8171 40.6948C61.7976 40.7425 61.7928 40.7948 61.8031 40.8452C61.8134 40.8956 61.8383 40.9418 61.8749 40.978C61.9114 41.0142 61.9579 41.0388 62.0084 41.0486C62.0588 41.0584 62.1111 41.0531 62.1586 41.0333C62.206 41.0134 62.2465 40.98 62.275 40.9371C62.3034 40.8943 62.3186 40.8439 62.3185 40.7925C62.3184 40.7582 62.3115 40.7243 62.2983 40.6926C62.2851 40.661 62.2657 40.6323 62.2414 40.6082C62.217 40.584 62.1881 40.565 62.1564 40.552C62.1246 40.5391 62.0906 40.5325 62.0563 40.5328ZM60.5003 43.2159C60.4321 43.2161 60.3655 43.2366 60.3089 43.2746C60.2524 43.3127 60.2083 43.3667 60.1824 43.4298C60.1565 43.4929 60.1499 43.5622 60.1634 43.6291C60.1769 43.6959 60.2099 43.7573 60.2582 43.8054C60.3066 43.8535 60.3681 43.8861 60.435 43.8993C60.5019 43.9124 60.5712 43.9055 60.6342 43.8792C60.6971 43.853 60.7509 43.8087 60.7887 43.7519C60.8264 43.6951 60.8465 43.6284 60.8464 43.5602C60.8464 43.5149 60.8373 43.47 60.8199 43.4281C60.8024 43.3863 60.7769 43.3483 60.7448 43.3163C60.7126 43.2843 60.6745 43.259 60.6325 43.2418C60.5906 43.2245 60.5457 43.2157 60.5003 43.2159ZM58.6621 45.715C58.5767 45.7157 58.4935 45.7417 58.4229 45.7896C58.3522 45.8375 58.2974 45.9052 58.2651 45.9842C58.2329 46.0632 58.2248 46.15 58.2418 46.2336C58.2588 46.3173 58.3001 46.394 58.3606 46.4542C58.4211 46.5143 58.4981 46.5553 58.5818 46.5718C58.6655 46.5883 58.7523 46.5797 58.8311 46.5471C58.91 46.5144 58.9774 46.4592 59.0249 46.3883C59.0724 46.3174 59.0979 46.234 59.0981 46.1487C59.098 46.0916 59.0867 46.035 59.0647 45.9823C59.0427 45.9296 59.0106 45.8817 58.9701 45.8414C58.9296 45.8011 58.8815 45.7692 58.8287 45.7475C58.7758 45.7258 58.7192 45.7148 58.6621 45.715V45.715ZM56.5605 48.0071C56.4577 48.007 56.3573 48.0373 56.2718 48.0943C56.1862 48.1514 56.1196 48.2324 56.0802 48.3274C56.0408 48.4223 56.0304 48.5267 56.0504 48.6275C56.0703 48.7283 56.1198 48.821 56.1924 48.8937C56.265 48.9664 56.3576 49.0159 56.4584 49.036C56.5591 49.0561 56.6636 49.0458 56.7586 49.0065C56.8535 48.9672 56.9347 48.9007 56.9918 48.8152C57.0489 48.7298 57.0794 48.6293 57.0794 48.5266C57.0795 48.4584 57.0661 48.3908 57.0401 48.3278C57.014 48.2648 56.9758 48.2075 56.9276 48.1593C56.8794 48.111 56.8222 48.0728 56.7592 48.0466C56.6962 48.0205 56.6287 48.0071 56.5605 48.0071V48.0071ZM54.2211 50.069C54.1014 50.0695 53.9846 50.1054 53.8853 50.1723C53.7861 50.2391 53.7089 50.3339 53.6635 50.4447C53.6181 50.5554 53.6065 50.6771 53.6303 50.7944C53.6541 50.9117 53.7121 51.0193 53.797 51.1037C53.8819 51.188 53.9899 51.2453 54.1074 51.2683C54.2248 51.2912 54.3465 51.2788 54.4569 51.2327C54.5673 51.1865 54.6616 51.1087 54.7278 51.009C54.794 50.9093 54.8291 50.7922 54.8288 50.6725C54.8288 50.5928 54.8131 50.514 54.7826 50.4405C54.752 50.3669 54.7072 50.3002 54.6507 50.2441C54.5942 50.188 54.5272 50.1436 54.4534 50.1136C54.3797 50.0835 54.3008 50.0684 54.2211 50.069V50.069ZM51.667 51.8629C51.5299 51.8622 51.3956 51.9022 51.2812 51.9778C51.1668 52.0535 51.0775 52.1614 51.0245 52.2878C50.9715 52.4143 50.9572 52.5536 50.9834 52.6882C51.0096 52.8228 51.0752 52.9466 51.1719 53.0439C51.2685 53.1412 51.3918 53.2076 51.5262 53.2348C51.6606 53.2619 51.8001 53.2486 51.9269 53.1964C52.0537 53.1443 52.1622 53.0557 52.2387 52.9418C52.3151 52.828 52.356 52.694 52.3562 52.5569C52.3559 52.3737 52.2834 52.1981 52.1543 52.0681C52.0252 51.9382 51.8501 51.8644 51.667 51.8629V51.8629ZM48.8951 53.3213C48.7409 53.3209 48.59 53.3664 48.4616 53.4518C48.3332 53.5373 48.233 53.6589 48.1738 53.8013C48.1146 53.9438 48.099 54.1005 48.129 54.2518C48.1589 54.4031 48.2331 54.5422 48.3421 54.6513C48.4512 54.7604 48.5901 54.8347 48.7414 54.8647C48.8927 54.8948 49.0495 54.8793 49.1919 54.8202C49.3344 54.7611 49.4561 54.661 49.5417 54.5327C49.6272 54.4044 49.6728 54.2535 49.6725 54.0993C49.6717 53.8933 49.5896 53.696 49.444 53.5502C49.2984 53.4045 49.1011 53.3222 48.8951 53.3213V53.3213ZM45.941 54.4005C45.7694 54.3999 45.6014 54.4503 45.4584 54.5452C45.3155 54.6402 45.2039 54.7755 45.1379 54.9339C45.0719 55.0923 45.0544 55.2668 45.0877 55.4352C45.1209 55.6035 45.2034 55.7583 45.3247 55.8797C45.446 56.0011 45.6006 56.0838 45.7689 56.1173C45.9373 56.1508 46.1117 56.1336 46.2703 56.0678C46.4288 56.002 46.5642 55.8906 46.6594 55.7478C46.7545 55.605 46.8051 55.4371 46.8048 55.2655C46.8046 55.0363 46.7136 54.8165 46.5517 54.6544C46.3898 54.4922 46.1701 54.4009 45.941 54.4005V54.4005ZM42.8614 55.0826C42.673 55.0823 42.4887 55.1378 42.3319 55.2422C42.175 55.3466 42.0527 55.4952 41.9802 55.6692C41.9078 55.8431 41.8887 56.0346 41.9251 56.2195C41.9616 56.4044 42.052 56.5743 42.1851 56.7077C42.3181 56.8411 42.4877 56.9321 42.6725 56.9692C42.8572 57.0062 43.0488 56.9876 43.223 56.9157C43.3971 56.8439 43.5461 56.722 43.651 56.5654C43.7559 56.4089 43.812 56.2248 43.8122 56.0364C43.8121 55.784 43.7119 55.5419 43.5338 55.3632C43.3556 55.1844 43.1138 55.0836 42.8614 55.0826ZM39.7074 55.3512C39.5021 55.3511 39.3014 55.4119 39.1306 55.5258C38.9598 55.6397 38.8266 55.8017 38.7479 55.9913C38.6691 56.1809 38.6483 56.3895 38.6881 56.5909C38.7279 56.7923 38.8266 56.9774 38.9715 57.1228C39.1165 57.2681 39.3013 57.3673 39.5025 57.4076C39.7038 57.448 39.9125 57.4278 40.1024 57.3496C40.2922 57.2714 40.4545 57.1387 40.5689 56.9682C40.6833 56.7978 40.7446 56.5972 40.7451 56.392C40.7454 56.1164 40.6363 55.8519 40.4417 55.6568C40.2471 55.4616 39.983 55.3517 39.7074 55.3512V55.3512ZM37.6585 56.3328C37.6585 56.1105 37.5925 55.8931 37.469 55.7082C37.3455 55.5234 37.1699 55.3793 36.9645 55.2942C36.7591 55.2091 36.5331 55.1869 36.315 55.2302C36.097 55.2736 35.8967 55.3807 35.7395 55.5379C35.5822 55.6951 35.4752 55.8954 35.4318 56.1135C35.3884 56.3315 35.4107 56.5576 35.4958 56.763C35.5809 56.9684 35.7249 57.1439 35.9098 57.2675C36.0947 57.391 36.312 57.4569 36.5343 57.4569C36.8322 57.4561 37.1177 57.3375 37.3284 57.1268C37.539 56.9162 37.6577 56.6307 37.6585 56.3328V56.3328ZM34.6079 55.8624C34.608 55.6229 34.5371 55.3887 34.4042 55.1895C34.2712 54.9903 34.0822 54.835 33.861 54.7432C33.6397 54.6514 33.3963 54.6273 33.1613 54.6738C32.9264 54.7204 32.7105 54.8356 32.5411 55.0048C32.3716 55.1741 32.2561 55.3897 32.2092 55.6246C32.1623 55.8595 32.186 56.103 32.2775 56.3243C32.369 56.5457 32.524 56.735 32.723 56.8682C32.9221 57.0015 33.1561 57.0727 33.3956 57.0729C33.5548 57.0732 33.7124 57.042 33.8594 56.9813C34.0065 56.9206 34.1401 56.8314 34.2527 56.719C34.3653 56.6066 34.4547 56.4731 34.5156 56.3261C34.5766 56.1791 34.6079 56.0215 34.6079 55.8624V55.8624ZM31.6455 54.9844C31.6455 54.727 31.5692 54.4753 31.4262 54.2613C31.2831 54.0472 31.0799 53.8804 30.842 53.7819C30.6042 53.6833 30.3425 53.6576 30.09 53.7078C29.8375 53.758 29.6055 53.882 29.4235 54.064C29.2415 54.2461 29.1175 54.478 29.0673 54.7305C29.0171 54.983 29.0428 55.2447 29.1414 55.4825C29.2399 55.7204 29.4067 55.9237 29.6208 56.0667C29.8348 56.2097 30.0865 56.286 30.3439 56.286C30.5149 56.2864 30.6844 56.253 30.8425 56.1878C31.0006 56.1225 31.1442 56.0266 31.2652 55.9057C31.3861 55.7847 31.482 55.6411 31.5472 55.483C31.6125 55.3249 31.6459 55.1555 31.6455 54.9844V54.9844ZM28.818 53.7171C28.8179 53.4434 28.7366 53.1758 28.5844 52.9483C28.4323 52.7208 28.216 52.5435 27.9631 52.4389C27.7101 52.3343 27.4318 52.307 27.1634 52.3606C26.895 52.4141 26.6484 52.5461 26.455 52.7398C26.2616 52.9335 26.1299 53.1802 26.0767 53.4487C26.0235 53.7172 26.0511 53.9954 26.156 54.2482C26.261 54.501 26.4385 54.7171 26.6663 54.869C26.894 55.0208 27.1616 55.1018 27.4354 55.1016C27.6171 55.1016 27.7971 55.0659 27.965 54.9963C28.1329 54.9267 28.2854 54.8247 28.4139 54.6961C28.5423 54.5675 28.6441 54.4149 28.7135 54.2469C28.7828 54.0789 28.8183 53.8988 28.818 53.7171V53.7171ZM56.9327 11.5372C56.9446 11.5382 56.9565 11.5367 56.9678 11.5328C56.9791 11.5289 56.9895 11.5227 56.9983 11.5146C57.0071 11.5066 57.0141 11.4967 57.0189 11.4858C57.0237 11.4748 57.0262 11.463 57.0262 11.4511C57.0262 11.4391 57.0237 11.4273 57.0189 11.4164C57.0141 11.4054 57.0071 11.3956 56.9983 11.3875C56.9895 11.3794 56.9791 11.3733 56.9678 11.3694C56.9565 11.3655 56.9446 11.364 56.9327 11.365C56.9111 11.3668 56.8909 11.3766 56.8763 11.3926C56.8616 11.4085 56.8534 11.4294 56.8534 11.4511C56.8534 11.4728 56.8616 11.4936 56.8763 11.5096C56.8909 11.5255 56.9111 11.5354 56.9327 11.5372V11.5372ZM58.4118 14.4363C58.4461 14.4363 58.4795 14.4261 58.508 14.4071C58.5365 14.3881 58.5588 14.361 58.5719 14.3294C58.585 14.2977 58.5885 14.2629 58.5819 14.2293C58.5752 14.1957 58.5588 14.1648 58.5346 14.1405C58.5104 14.1163 58.4796 14.0997 58.446 14.093C58.4124 14.0862 58.3775 14.0895 58.3459 14.1026C58.3142 14.1156 58.2871 14.1377 58.2679 14.1662C58.2488 14.1946 58.2385 14.2281 58.2384 14.2623C58.2381 14.2852 58.2424 14.3079 58.251 14.3291C58.2596 14.3503 58.2723 14.3696 58.2885 14.3858C58.3046 14.402 58.3239 14.4148 58.345 14.4235C58.3662 14.4322 58.3889 14.4365 58.4118 14.4363V14.4363ZM59.5821 17.472C59.6334 17.4721 59.6835 17.457 59.7262 17.4286C59.7689 17.4002 59.8022 17.3598 59.8219 17.3125C59.8416 17.2651 59.8468 17.213 59.8369 17.1627C59.827 17.1124 59.8023 17.0661 59.7661 17.0298C59.7299 16.9935 59.6837 16.9688 59.6334 16.9588C59.5832 16.9487 59.531 16.9538 59.4836 16.9734C59.4362 16.993 59.3957 17.0262 59.3672 17.0688C59.3387 17.1115 59.3235 17.1616 59.3235 17.2129C59.3234 17.2469 59.3301 17.2806 59.343 17.312C59.356 17.3434 59.375 17.372 59.399 17.3961C59.4231 17.4202 59.4516 17.4392 59.483 17.4523C59.5144 17.4653 59.5481 17.472 59.5821 17.472V17.472ZM60.44 20.6149C60.5086 20.6151 60.5758 20.5949 60.633 20.5569C60.6902 20.5189 60.7348 20.4648 60.7612 20.4014C60.7876 20.338 60.7946 20.2682 60.7813 20.2008C60.7679 20.1334 60.7349 20.0716 60.6863 20.023C60.6377 19.9744 60.5759 19.9414 60.5085 19.9281C60.4411 19.9147 60.3713 19.9217 60.3079 19.9481C60.2445 19.9745 60.1904 20.0191 60.1524 20.0763C60.1144 20.1335 60.0942 20.2007 60.0944 20.2693C60.0944 20.3147 60.1032 20.3597 60.1206 20.4017C60.1379 20.4436 60.1634 20.4817 60.1955 20.5138C60.2276 20.5459 60.2657 20.5714 60.3076 20.5887C60.3496 20.6061 60.3946 20.6149 60.44 20.6149V20.6149ZM60.5358 23.3998C60.5362 23.4853 60.5619 23.5688 60.6096 23.6397C60.6574 23.7106 60.7252 23.7657 60.8043 23.7982C60.8834 23.8306 60.9704 23.8388 61.0542 23.8219C61.138 23.8049 61.2149 23.7634 61.2752 23.7028C61.3354 23.6421 61.3763 23.5649 61.3928 23.481C61.4092 23.3971 61.4003 23.3102 61.3674 23.2312C61.3344 23.1523 61.2788 23.085 61.2075 23.0377C61.1363 22.9904 61.0526 22.9653 60.9671 22.9655C60.8524 22.966 60.7425 23.012 60.6616 23.0934C60.5807 23.1748 60.5355 23.285 60.5358 23.3998V23.3998ZM61.1647 26.0468C61.0622 26.047 60.9621 26.0776 60.8769 26.1347C60.7918 26.1918 60.7254 26.2729 60.6863 26.3677C60.6472 26.4624 60.637 26.5667 60.6571 26.6672C60.6771 26.7677 60.7265 26.8601 60.799 26.9326C60.8715 27.0051 60.9639 27.0545 61.0644 27.0745C61.1649 27.0946 61.2692 27.0844 61.3639 27.0453C61.4587 27.0062 61.5397 26.9398 61.5969 26.8547C61.654 26.7695 61.6846 26.6694 61.6848 26.5669C61.6848 26.4289 61.63 26.2967 61.5325 26.1991C61.4349 26.1016 61.3027 26.0468 61.1647 26.0468V26.0468ZM61.0269 29.1317C60.9068 29.1318 60.7894 29.1675 60.6897 29.2343C60.5899 29.3012 60.5122 29.3961 60.4664 29.5071C60.4205 29.6181 60.4087 29.7402 60.4323 29.8579C60.4559 29.9757 60.5138 30.0838 60.5989 30.1686C60.6839 30.2534 60.7922 30.311 60.91 30.3343C61.0278 30.3575 61.1499 30.3453 61.2607 30.2991C61.3716 30.253 61.4663 30.175 61.5328 30.075C61.5993 29.9751 61.6347 29.8576 61.6345 29.7375C61.6347 29.6578 61.619 29.5788 61.5885 29.5051C61.558 29.4314 61.5133 29.3644 61.4568 29.3081C61.4003 29.2518 61.3332 29.2072 61.2595 29.177C61.1857 29.1467 61.1066 29.1313 61.0269 29.1317ZM60.553 32.1858C60.4161 32.1861 60.2825 32.227 60.1689 32.3033C60.0553 32.3796 59.9668 32.4878 59.9147 32.6143C59.8626 32.7408 59.8491 32.88 59.876 33.0141C59.9029 33.1483 59.969 33.2715 60.0659 33.3681C60.1628 33.4647 60.2861 33.5305 60.4203 33.5571C60.5546 33.5836 60.6937 33.5698 60.8201 33.5174C60.9464 33.4649 61.0544 33.3762 61.1304 33.2624C61.2064 33.1486 61.247 33.0148 61.247 32.878C61.2471 32.7869 61.2293 32.6967 61.1944 32.6125C61.1596 32.5283 61.1084 32.4519 61.0439 32.3875C60.9794 32.3232 60.9029 32.2723 60.8186 32.2376C60.7343 32.203 60.6441 32.1854 60.553 32.1858V32.1858ZM60.4619 35.9297C60.4617 35.7756 60.4159 35.6249 60.3301 35.4968C60.2444 35.3687 60.1225 35.2689 59.98 35.2101C59.8375 35.1513 59.6808 35.136 59.5296 35.1663C59.3785 35.1966 59.2397 35.271 59.1308 35.3802C59.022 35.4894 58.948 35.6284 58.9182 35.7796C58.8883 35.9309 58.9041 36.0876 58.9633 36.2299C59.0226 36.3722 59.1227 36.4937 59.2511 36.5791C59.3795 36.6645 59.5303 36.7099 59.6844 36.7095C59.7868 36.7097 59.8881 36.6896 59.9827 36.6504C60.0772 36.6113 60.1631 36.5538 60.2353 36.4813C60.3076 36.4089 60.3648 36.3228 60.4037 36.2281C60.4426 36.1335 60.4623 36.0321 60.4619 35.9297V35.9297ZM58.4195 37.9774C58.2484 37.9774 58.0812 38.0282 57.9389 38.1232C57.7967 38.2183 57.6858 38.3533 57.6203 38.5114C57.5549 38.6695 57.5377 38.8434 57.5711 39.0112C57.6045 39.179 57.6869 39.3331 57.8078 39.4541C57.9288 39.575 58.0829 39.6574 58.2507 39.6908C58.4185 39.7242 58.5924 39.707 58.7505 39.6416C58.9086 39.5761 59.0436 39.4652 59.1387 39.323C59.2337 39.1807 59.2845 39.0135 59.2845 38.8424C59.2846 38.7288 59.2624 38.6162 59.2189 38.5112C59.1755 38.4062 59.1118 38.3108 59.0315 38.2304C58.9511 38.1501 58.8557 38.0864 58.7507 38.043C58.6457 37.9995 58.5331 37.9773 58.4195 37.9774ZM56.7853 40.6126C56.5973 40.6129 56.4136 40.6688 56.2574 40.7735C56.1012 40.8781 55.9796 41.0266 55.9078 41.2004C55.836 41.3741 55.8173 41.5653 55.8542 41.7496C55.891 41.934 55.9816 42.1033 56.1146 42.2361C56.2477 42.369 56.4171 42.4594 56.6015 42.496C56.7859 42.5326 56.977 42.5137 57.1506 42.4417C57.3243 42.3697 57.4727 42.2479 57.5772 42.0915C57.6816 41.9352 57.7373 41.7514 57.7373 41.5634C57.7373 41.4385 57.7127 41.3147 57.6648 41.1993C57.617 41.0839 57.5468 40.979 57.4584 40.8907C57.37 40.8024 57.265 40.7324 57.1496 40.6847C57.0341 40.637 56.9103 40.6125 56.7853 40.6126V40.6126ZM54.8069 43.0076C54.6015 43.0075 54.4007 43.0683 54.23 43.1824C54.0592 43.2964 53.9261 43.4585 53.8475 43.6483C53.7689 43.838 53.7484 44.0467 53.7885 44.2481C53.8286 44.4495 53.9276 44.6345 54.0729 44.7796C54.2182 44.9247 54.4033 45.0235 54.6047 45.0634C54.8061 45.1033 55.0149 45.0825 55.2045 45.0037C55.3941 44.9249 55.5561 44.7916 55.67 44.6207C55.7838 44.4498 55.8444 44.249 55.844 44.0436C55.844 43.9075 55.8172 43.7727 55.7651 43.6469C55.7129 43.5211 55.6365 43.4069 55.5402 43.3107C55.4439 43.2144 55.3295 43.1382 55.2037 43.0862C55.0779 43.0342 54.943 43.0075 54.8069 43.0076V43.0076ZM52.5225 45.1216C52.3002 45.1216 52.0828 45.1875 51.898 45.3111C51.7131 45.4346 51.569 45.6101 51.4839 45.8156C51.3989 46.021 51.3766 46.247 51.42 46.4651C51.4633 46.6831 51.5704 46.8834 51.7276 47.0406C51.8848 47.1978 52.0851 47.3049 52.3032 47.3483C52.5213 47.3917 52.7473 47.3694 52.9527 47.2843C53.1581 47.1992 53.3337 47.0551 53.4572 46.8703C53.5807 46.6854 53.6466 46.4681 53.6466 46.2457C53.6466 45.9476 53.5282 45.6617 53.3174 45.4509C53.1066 45.24 52.8206 45.1216 52.5225 45.1216V45.1216ZM49.9713 46.9214C49.732 46.9215 49.4981 46.9926 49.2991 47.1256C49.1002 47.2586 48.9451 47.4476 48.8535 47.6687C48.7619 47.8898 48.738 48.1331 48.7846 48.3678C48.8312 48.6025 48.9464 48.8182 49.1155 48.9875C49.2847 49.1568 49.5002 49.2721 49.7349 49.319C49.9696 49.3659 50.2129 49.3421 50.434 49.2507C50.6552 49.1594 50.8444 49.0045 50.9776 48.8057C51.1108 48.6069 51.1821 48.373 51.1824 48.1337C51.1826 47.9746 51.1514 47.8169 51.0906 47.6699C51.0298 47.5228 50.9406 47.3891 50.8281 47.2766C50.7156 47.164 50.5821 47.0746 50.435 47.0137C50.288 46.9528 50.1305 46.9214 49.9713 46.9214V46.9214ZM47.1953 48.3709C46.9385 48.3707 46.6874 48.4466 46.4738 48.589C46.2601 48.7315 46.0935 48.934 45.9949 49.1711C45.8963 49.4082 45.8703 49.6693 45.92 49.9212C45.9698 50.1731 46.0931 50.4046 46.2743 50.5865C46.4556 50.7683 46.6867 50.8924 46.9385 50.9429C47.1903 50.9934 47.4513 50.9682 47.6888 50.8704C47.9262 50.7726 48.1293 50.6066 48.2724 50.3934C48.4155 50.1802 48.4922 49.9294 48.4928 49.6726C48.4932 49.5019 48.46 49.3327 48.395 49.1749C48.3301 49.017 48.2346 48.8735 48.114 48.7526C47.9935 48.6317 47.8503 48.5358 47.6927 48.4703C47.535 48.4048 47.366 48.371 47.1953 48.3709V48.3709ZM44.2412 49.4483C43.9674 49.4486 43.6998 49.53 43.4723 49.6823C43.2447 49.8346 43.0675 50.0509 42.9629 50.304C42.8583 50.557 42.8311 50.8353 42.8847 51.1038C42.9383 51.3723 43.0703 51.6189 43.264 51.8124C43.4578 52.0059 43.7045 52.1376 43.9731 52.1908C44.2416 52.2441 44.52 52.2165 44.7729 52.1116C45.0257 52.0067 45.2419 51.8291 45.3939 51.6014C45.5459 51.3737 45.6269 51.106 45.6268 50.8322C45.6265 50.465 45.4804 50.1129 45.2205 49.8534C44.9607 49.5939 44.6084 49.4482 44.2412 49.4483V49.4483ZM35.2144 0.172754C35.2314 0.17252 35.2479 0.167271 35.262 0.157665C35.276 0.148059 35.2869 0.134522 35.2933 0.118753C35.2996 0.102985 35.3012 0.0856847 35.2978 0.0690231C35.2944 0.0523615 35.2861 0.0370797 35.2741 0.0250937C35.262 0.0131077 35.2466 0.004951 35.23 0.00164626C35.2133 -0.00165848 35.196 3.5836e-05 35.1803 0.00651678C35.1645 0.0129977 35.1511 0.0239769 35.1416 0.0380776C35.1321 0.0521783 35.1269 0.0687731 35.1268 0.0857812C35.1268 0.0972525 35.1291 0.108611 35.1335 0.119201C35.1379 0.129792 35.1443 0.139406 35.1525 0.14749C35.1606 0.155574 35.1703 0.161968 35.1809 0.166304C35.1915 0.17064 35.2029 0.172832 35.2144 0.172754V0.172754ZM38.2448 1.20341C38.279 1.20317 38.3124 1.19282 38.3407 1.17366C38.3691 1.1545 38.3911 1.12738 38.4041 1.09571C38.417 1.06405 38.4203 1.02927 38.4135 0.995733C38.4068 0.9622 38.3902 0.931421 38.366 0.907272C38.3418 0.883122 38.3109 0.866683 38.2774 0.860022C38.2438 0.853362 38.209 0.856779 38.1774 0.869844C38.1458 0.882908 38.1188 0.905035 38.0997 0.933439C38.0806 0.961843 38.0704 0.995253 38.0703 1.02946C38.0702 1.05238 38.0746 1.07508 38.0834 1.09626C38.0921 1.11744 38.105 1.13667 38.1212 1.15285C38.1375 1.16902 38.1568 1.18182 38.178 1.1905C38.1992 1.19918 38.2219 1.20357 38.2448 1.20341V1.20341ZM41.1605 2.54409C41.2118 2.54397 41.2621 2.52861 41.3047 2.49994C41.3474 2.47128 41.3806 2.4306 41.4001 2.38306C41.4196 2.33553 41.4246 2.28326 41.4144 2.23288C41.4043 2.18251 41.3794 2.13628 41.3429 2.10007C41.3064 2.06385 41.26 2.03926 41.2096 2.02942C41.1591 2.01958 41.1069 2.02493 41.0595 2.04479C41.0121 2.06465 40.9717 2.09812 40.9433 2.14098C40.9149 2.18383 40.8999 2.23414 40.9001 2.28554C40.9004 2.35432 40.928 2.42017 40.9768 2.46864C41.0256 2.51711 41.0917 2.54425 41.1605 2.54409V2.54409ZM43.927 4.18828C43.9954 4.18805 44.0622 4.16755 44.119 4.12938C44.1757 4.0912 44.2199 4.03707 44.2459 3.9738C44.2719 3.91054 44.2786 3.84098 44.2651 3.77392C44.2517 3.70686 44.2186 3.6453 44.1701 3.59701C44.1217 3.54873 44.06 3.51588 43.9929 3.50262C43.9258 3.48936 43.8563 3.49628 43.7931 3.52251C43.7299 3.54875 43.6759 3.59311 43.638 3.65C43.6 3.70689 43.5797 3.77376 43.5797 3.84217C43.5796 3.88774 43.5886 3.93288 43.606 3.97499C43.6235 4.01709 43.649 4.05533 43.6813 4.0875C43.7136 4.11967 43.7519 4.14514 43.7941 4.16244C43.8363 4.17973 43.8814 4.18852 43.927 4.18828V4.18828ZM46.5131 6.11115C46.5984 6.11115 46.6818 6.08585 46.7527 6.03846C46.8237 5.99106 46.8789 5.9237 46.9116 5.84489C46.9442 5.76608 46.9528 5.67936 46.9361 5.59569C46.9195 5.51202 46.8784 5.43517 46.8181 5.37485C46.7578 5.31453 46.6809 5.27345 46.5973 5.25681C46.5136 5.24017 46.4269 5.24871 46.3481 5.28135C46.2692 5.314 46.2019 5.36928 46.1545 5.44021C46.1071 5.51114 46.0818 5.59453 46.0818 5.67983C46.0816 5.73652 46.0927 5.79268 46.1143 5.84508C46.1359 5.89748 46.1677 5.94508 46.2078 5.98517C46.2479 6.02525 46.2955 6.05701 46.3479 6.07863C46.4003 6.10025 46.4564 6.1113 46.5131 6.11115ZM48.8915 8.30084C48.9945 8.30143 49.0953 8.27144 49.1812 8.21468C49.2671 8.15792 49.3342 8.07694 49.3741 7.982C49.4139 7.88706 49.4247 7.78243 49.405 7.68137C49.3853 7.58031 49.336 7.48737 49.2635 7.41431C49.1909 7.34126 49.0983 7.29139 48.9974 7.27102C48.8965 7.25064 48.7918 7.26068 48.6966 7.29987C48.6014 7.33905 48.5199 7.40561 48.4626 7.49112C48.4052 7.57663 48.3746 7.67723 48.3744 7.78019C48.3744 7.91767 48.4288 8.04956 48.5257 8.1471C48.6226 8.24464 48.7541 8.29991 48.8915 8.30084V8.30084ZM51.0398 10.7266C51.1598 10.7264 51.2771 10.6905 51.3767 10.6236C51.4764 10.5567 51.5539 10.4617 51.5995 10.3507C51.6452 10.2397 51.6568 10.1177 51.6331 10C51.6093 9.8824 51.5511 9.77446 51.466 9.68989C51.3808 9.60531 51.2725 9.54791 51.1547 9.52494C51.0369 9.50197 50.9149 9.51447 50.8042 9.56086C50.6935 9.60725 50.5991 9.68544 50.5329 9.78553C50.4667 9.88562 50.4316 10.0031 50.4322 10.1231C50.4328 10.2837 50.4972 10.4375 50.6111 10.5506C50.725 10.6638 50.8792 10.7271 51.0398 10.7266V10.7266ZM52.9236 13.3713C53.0606 13.3712 53.1945 13.3305 53.3083 13.2543C53.4222 13.1781 53.5109 13.0699 53.5632 12.9433C53.6156 12.8168 53.6293 12.6775 53.6025 12.5432C53.5758 12.4088 53.5098 12.2854 53.4129 12.1886C53.3161 12.0917 53.1927 12.0257 53.0584 11.999C52.924 11.9722 52.7848 11.9859 52.6582 12.0383C52.5316 12.0906 52.4234 12.1793 52.3472 12.2932C52.2711 12.407 52.2303 12.5409 52.2302 12.6779C52.2301 12.769 52.2479 12.8592 52.2827 12.9434C52.3175 13.0276 52.3686 13.1041 52.433 13.1685C52.4974 13.233 52.5739 13.284 52.6581 13.3188C52.7423 13.3536 52.8325 13.3714 52.9236 13.3713V13.3713ZM54.4673 16.2284C54.621 16.2278 54.7711 16.1817 54.8987 16.0958C55.0262 16.01 55.1255 15.8883 55.1839 15.746C55.2424 15.6038 55.2574 15.4475 55.227 15.2968C55.1967 15.146 55.1223 15.0077 55.0134 14.8992C54.9045 14.7907 54.7658 14.7168 54.615 14.6871C54.4642 14.6573 54.3079 14.6729 54.1659 14.7318C54.0239 14.7908 53.9026 14.8905 53.8172 15.0184C53.7318 15.1463 53.6863 15.2966 53.6863 15.4503C53.6864 15.5527 53.7068 15.6541 53.7461 15.7486C53.7854 15.8431 53.843 15.9289 53.9155 16.0012C53.9881 16.0734 54.0741 16.1307 54.1688 16.1697C54.2635 16.2087 54.3649 16.2286 54.4673 16.2284V16.2284ZM54.7672 18.4003C54.7668 18.5716 54.8171 18.7391 54.9119 18.8818C55.0067 19.0244 55.1417 19.1357 55.2998 19.2016C55.4579 19.2675 55.632 19.285 55.8 19.252C55.968 19.2189 56.1225 19.1367 56.2438 19.0158C56.3651 18.8949 56.4479 18.7407 56.4815 18.5728C56.5152 18.4049 56.4982 18.2307 56.4329 18.0724C56.3675 17.9141 56.2567 17.7787 56.1144 17.6834C55.9721 17.5881 55.8047 17.5372 55.6334 17.5371C55.5198 17.5367 55.4072 17.5587 55.3022 17.602C55.1971 17.6452 55.1016 17.7087 55.0211 17.7889C54.9406 17.8691 54.8768 17.9644 54.8332 18.0693C54.7896 18.1742 54.7672 18.2867 54.7672 18.4003V18.4003ZM55.4488 21.484C55.4492 21.6722 55.5053 21.856 55.6101 22.0123C55.7149 22.1686 55.8636 22.2904 56.0376 22.3622C56.2115 22.434 56.4028 22.4526 56.5874 22.4157C56.7719 22.3788 56.9413 22.2881 57.0743 22.1549C57.2073 22.0218 57.2978 21.8522 57.3345 21.6677C57.3712 21.4831 57.3523 21.2918 57.2803 21.1179C57.2083 20.9441 57.0863 20.7955 56.9299 20.6909C56.7735 20.5863 56.5895 20.5304 56.4014 20.5303C56.2761 20.5299 56.1519 20.5543 56.0361 20.6021C55.9203 20.6499 55.8151 20.7201 55.7265 20.8088C55.638 20.8975 55.5678 21.0028 55.5202 21.1186C55.4725 21.2345 55.4483 21.3587 55.4488 21.484V21.484ZM55.7168 24.6369C55.7169 24.8425 55.778 25.0435 55.8924 25.2144C56.0067 25.3853 56.1692 25.5184 56.3592 25.597C56.5493 25.6755 56.7583 25.696 56.9599 25.6557C57.1616 25.6154 57.3468 25.5163 57.492 25.3707C57.6373 25.2252 57.7362 25.0399 57.7761 24.8382C57.816 24.6365 57.7952 24.4274 57.7164 24.2375C57.6375 24.0476 57.5041 23.8854 57.333 23.7714C57.1619 23.6573 56.9608 23.5965 56.7552 23.5968C56.6187 23.5968 56.4835 23.6237 56.3574 23.676C56.2313 23.7283 56.1168 23.8049 56.0203 23.9015C55.9239 23.9981 55.8474 24.1128 55.7954 24.239C55.7433 24.3652 55.7166 24.5004 55.7168 24.6369ZM57.8207 27.8076C57.8207 27.5852 57.7548 27.3679 57.6313 27.183C57.5078 26.9982 57.3322 26.8541 57.1268 26.769C56.9214 26.6839 56.6953 26.6616 56.4773 26.705C56.2592 26.7484 56.0589 26.8555 55.9017 27.0127C55.7445 27.1699 55.6374 27.3702 55.5941 27.5882C55.5507 27.8063 55.5729 28.0323 55.658 28.2377C55.7431 28.4432 55.8872 28.6187 56.0721 28.7422C56.2569 28.8658 56.4743 28.9317 56.6966 28.9317C56.9947 28.9317 57.2807 28.8133 57.4915 28.6024C57.7023 28.3916 57.8207 28.1057 57.8207 27.8076V27.8076ZM57.4362 30.9474C57.436 30.7078 57.3648 30.4736 57.2316 30.2745C57.0983 30.0754 56.909 29.9202 56.6876 29.8287C56.4661 29.7372 56.2225 29.7135 55.9875 29.7604C55.7526 29.8074 55.5368 29.9231 55.3676 30.0927C55.1984 30.2623 55.0833 30.4784 55.0369 30.7134C54.9905 30.9485 55.0148 31.1921 55.1069 31.4133C55.1989 31.6345 55.3545 31.8235 55.554 31.9562C55.7534 32.089 55.9878 32.1596 56.2274 32.1591C56.5484 32.1587 56.856 32.0308 57.0826 31.8035C57.3093 31.5763 57.4365 31.2684 57.4362 30.9474V30.9474ZM56.6493 33.998C56.6493 33.7414 56.5732 33.4906 56.4307 33.2772C56.2883 33.0638 56.0857 32.8974 55.8488 32.7991C55.6118 32.7007 55.3509 32.6748 55.0992 32.7246C54.8475 32.7744 54.6162 32.8977 54.4346 33.0789C54.2529 33.26 54.129 33.491 54.0785 33.7426C54.028 33.9941 54.0532 34.255 54.1509 34.4923C54.2486 34.7295 54.4144 34.9325 54.6274 35.0756C54.8404 35.2186 55.091 35.2954 55.3476 35.2961C55.5184 35.2965 55.6875 35.2632 55.8454 35.1981C56.0032 35.1331 56.1467 35.0375 56.2676 34.917C56.3885 34.7964 56.4845 34.6532 56.55 34.4955C56.6154 34.3378 56.6492 34.1687 56.6493 33.998V33.998ZM54.0827 35.5227C53.8088 35.5231 53.5413 35.6048 53.3138 35.7572C53.0864 35.9097 52.9092 36.1262 52.8047 36.3793C52.7003 36.6325 52.6732 36.9109 52.7269 37.1794C52.7806 37.4479 52.9127 37.6945 53.1065 37.8879C53.3003 38.0814 53.5471 38.2131 53.8157 38.2663C54.0843 38.3196 54.3627 38.292 54.6156 38.1871C54.8686 38.0822 55.0848 37.9047 55.2368 37.677C55.3889 37.4493 55.4701 37.1816 55.4701 36.9077C55.47 36.7257 55.4341 36.5454 55.3643 36.3772C55.2945 36.2091 55.1923 36.0563 55.0634 35.9277C54.9346 35.7991 54.7816 35.6971 54.6134 35.6276C54.4451 35.5581 54.2647 35.5224 54.0827 35.5227ZM11.8193 7.49383C11.8421 7.49383 11.8639 7.4848 11.88 7.46871C11.8961 7.45262 11.9051 7.4308 11.9051 7.40804C11.905 7.38523 11.8959 7.36337 11.8799 7.34713C11.8639 7.33088 11.8421 7.32153 11.8193 7.32107C11.7963 7.32107 11.7741 7.33024 11.7578 7.34655C11.7415 7.36286 11.7324 7.38498 11.7324 7.40804C11.7323 7.41943 11.7345 7.43072 11.7388 7.44125C11.7432 7.45177 11.7496 7.46131 11.7577 7.46931C11.7658 7.47731 11.7755 7.4836 11.786 7.48781C11.7966 7.49202 11.8079 7.49407 11.8193 7.49383V7.49383ZM14.6279 6.10464C14.6619 6.1044 14.6952 6.09408 14.7233 6.07496C14.7515 6.05585 14.7734 6.02881 14.7862 5.99726C14.799 5.96571 14.8022 5.93107 14.7953 5.89772C14.7885 5.86437 14.7719 5.83381 14.7476 5.8099C14.7234 5.78598 14.6926 5.7698 14.6591 5.76338C14.6257 5.75697 14.5911 5.76062 14.5597 5.77386C14.5284 5.78711 14.5016 5.80936 14.4829 5.8378C14.4642 5.86625 14.4543 5.8996 14.4545 5.93365C14.4547 5.95626 14.4593 5.97862 14.4681 5.99945C14.4769 6.02028 14.4897 6.03917 14.5058 6.05505C14.5219 6.07093 14.541 6.08348 14.5619 6.09199C14.5829 6.1005 14.6053 6.10479 14.6279 6.10464V6.10464ZM17.5773 5.01955C17.6291 5.02002 17.6798 5.00507 17.7231 4.97661C17.7663 4.94815 17.8001 4.90746 17.8202 4.85972C17.8402 4.81198 17.8456 4.75936 17.8357 4.70854C17.8258 4.65772 17.8009 4.61102 17.7643 4.57436C17.7278 4.5377 17.6811 4.51276 17.6303 4.5027C17.5795 4.49264 17.5269 4.49792 17.4791 4.51787C17.4313 4.53782 17.3906 4.57154 17.362 4.61473C17.3334 4.65792 17.3184 4.70863 17.3187 4.76041C17.3187 4.82904 17.3459 4.89486 17.3944 4.94344C17.4429 4.99202 17.5086 5.0194 17.5773 5.01955V5.01955ZM20.6337 4.24922C20.7022 4.24887 20.769 4.22823 20.8257 4.18991C20.8825 4.15158 20.9265 4.0973 20.9524 4.03392C20.9783 3.97054 20.9848 3.90092 20.9711 3.83385C20.9574 3.76678 20.9241 3.70528 20.8754 3.65712C20.8268 3.60896 20.765 3.57632 20.6977 3.56331C20.6305 3.5503 20.561 3.55751 20.4979 3.58403C20.4348 3.61055 20.3809 3.65519 20.3432 3.7123C20.3055 3.76941 20.2855 3.83643 20.2858 3.90488C20.2858 3.95043 20.2947 3.99553 20.3122 4.03758C20.3297 4.07962 20.3554 4.11777 20.3878 4.14981C20.4201 4.18185 20.4586 4.20713 20.5008 4.2242C20.543 4.24127 20.5882 4.24977 20.6337 4.24922ZM23.7636 3.80608C23.849 3.80584 23.9325 3.78031 24.0034 3.7327C24.0743 3.68508 24.1296 3.61752 24.1622 3.53854C24.1948 3.45956 24.2032 3.3727 24.1865 3.28892C24.1698 3.20513 24.1286 3.12818 24.0682 3.06776C24.0078 3.00735 23.9308 2.96618 23.847 2.94946C23.7633 2.93273 23.6764 2.94119 23.5974 2.97378C23.5184 3.00637 23.4509 3.06162 23.4033 3.13256C23.3557 3.2035 23.3301 3.28696 23.3299 3.3724C23.3296 3.42944 23.3406 3.48597 23.3623 3.53873C23.3839 3.59149 23.4159 3.63942 23.4562 3.67976C23.4965 3.72009 23.5445 3.75202 23.5972 3.77371C23.65 3.79539 23.7065 3.80639 23.7636 3.80608V3.80608ZM26.9319 3.69662C27.0346 3.69639 27.135 3.66569 27.2203 3.60842C27.3056 3.55114 27.3719 3.46986 27.4111 3.37485C27.4502 3.27984 27.4602 3.17537 27.4399 3.07465C27.4197 2.97393 27.37 2.88148 27.2972 2.809C27.2243 2.73652 27.1317 2.68725 27.0309 2.66744C26.93 2.64762 26.8256 2.65815 26.7308 2.69768C26.636 2.73722 26.555 2.80398 26.4981 2.88954C26.4412 2.97509 26.411 3.0756 26.4112 3.17834C26.411 3.24667 26.4243 3.31436 26.4504 3.3775C26.4765 3.44065 26.5149 3.49798 26.5633 3.54619C26.6117 3.59439 26.6693 3.63251 26.7325 3.65833C26.7958 3.68416 26.8635 3.69717 26.9319 3.69662V3.69662ZM30.1031 3.91849C30.2229 3.91873 30.34 3.88343 30.4397 3.81706C30.5394 3.7507 30.6171 3.65625 30.6631 3.54568C30.7091 3.4351 30.7213 3.31337 30.6981 3.19588C30.6748 3.07839 30.6173 2.97044 30.5327 2.88567C30.4481 2.80091 30.3402 2.74314 30.2228 2.71969C30.1054 2.69624 29.9836 2.70816 29.8729 2.75394C29.7623 2.79971 29.6677 2.87729 29.6011 2.97685C29.5346 3.07641 29.499 3.19347 29.499 3.31323C29.4986 3.39273 29.514 3.47151 29.5442 3.54504C29.5744 3.61858 29.6189 3.6854 29.675 3.74167C29.7312 3.79793 29.7979 3.84253 29.8714 3.87287C29.9449 3.90322 30.0236 3.91873 30.1031 3.91849V3.91849ZM33.243 4.48056C33.3798 4.48056 33.5136 4.44 33.6274 4.36402C33.7412 4.28803 33.8299 4.18003 33.8824 4.05364C33.9348 3.92726 33.9486 3.78816 33.922 3.65393C33.8955 3.5197 33.8297 3.39635 33.7331 3.29947C33.6365 3.20259 33.5133 3.13653 33.3791 3.10962C33.245 3.08271 33.1058 3.09616 32.9793 3.14828C32.8528 3.2004 32.7446 3.28885 32.6683 3.40246C32.592 3.51606 32.5511 3.64972 32.5508 3.78655C32.5503 3.87767 32.5679 3.96798 32.6025 4.05228C32.6371 4.13658 32.688 4.21319 32.7524 4.27771C32.8167 4.34222 32.8932 4.39336 32.9774 4.42818C33.0616 4.46299 33.1519 4.48079 33.243 4.48056V4.48056ZM36.2953 5.43726C36.4493 5.43737 36.5999 5.39182 36.728 5.30637C36.8561 5.22091 36.956 5.09938 37.015 4.95715C37.0741 4.81493 37.0896 4.65839 37.0597 4.50733C37.0297 4.35627 36.9557 4.21748 36.8469 4.1085C36.7381 3.99953 36.5994 3.92527 36.4484 3.89511C36.2974 3.86495 36.1408 3.88025 35.9985 3.93908C35.8562 3.9979 35.7345 4.0976 35.6488 4.22558C35.5632 4.35356 35.5174 4.50406 35.5173 4.65805C35.5181 4.86427 35.6003 5.06183 35.746 5.20776C35.8917 5.35369 36.0891 5.43617 36.2953 5.43726V5.43726ZM39.2068 6.78681C39.3781 6.7874 39.5458 6.73713 39.6885 6.64237C39.8313 6.54762 39.9427 6.41264 40.0086 6.25453C40.0746 6.09641 40.0922 5.92228 40.0591 5.75418C40.026 5.58608 39.9438 5.43157 39.8229 5.31022C39.702 5.18887 39.5477 5.10614 39.3797 5.0725C39.2118 5.03886 39.0376 5.05583 38.8792 5.12125C38.7209 5.18668 38.5855 5.29762 38.4903 5.44003C38.395 5.58244 38.3442 5.74991 38.3442 5.92123C38.344 6.03471 38.3661 6.14713 38.4093 6.25206C38.4526 6.35699 38.516 6.45238 38.5962 6.53276C38.6763 6.61315 38.7714 6.67696 38.8762 6.72055C38.981 6.76414 39.0933 6.78666 39.2068 6.78681V6.78681ZM40.9759 7.55596C40.9756 7.74417 41.0312 7.92823 41.1356 8.08483C41.24 8.24144 41.3885 8.36357 41.5623 8.43575C41.7362 8.50794 41.9275 8.52695 42.1121 8.49038C42.2967 8.4538 42.4664 8.36329 42.5995 8.23028C42.7327 8.09728 42.8234 7.92776 42.8602 7.74318C42.897 7.5586 42.8783 7.36725 42.8063 7.19334C42.7343 7.01943 42.6124 6.87078 42.4559 6.76618C42.2994 6.66159 42.1154 6.60577 41.9272 6.60577C41.8024 6.60569 41.6787 6.6302 41.5633 6.67791C41.448 6.72562 41.3431 6.79559 41.2548 6.88383C41.1664 6.97206 41.0963 7.07683 41.0485 7.19215C41.0006 7.30748 40.9759 7.4311 40.9759 7.55596V7.55596ZM44.4104 10.5734C44.6154 10.5728 44.8157 10.5115 44.9859 10.3972C45.1562 10.2829 45.2887 10.1207 45.3669 9.93111C45.445 9.74154 45.4652 9.53307 45.425 9.33201C45.3848 9.13095 45.2859 8.94631 45.1408 8.8014C44.9957 8.65649 44.811 8.55781 44.6099 8.51781C44.4088 8.47781 44.2003 8.49828 44.0108 8.57664C43.8214 8.65499 43.6593 8.78773 43.5452 8.95809C43.4311 9.12845 43.37 9.3288 43.3697 9.53384C43.3696 9.67048 43.3965 9.80579 43.4488 9.93202C43.501 10.0583 43.5777 10.1729 43.6744 10.2695C43.7711 10.3661 43.8858 10.4426 44.0121 10.4947C44.1384 10.5469 44.2738 10.5736 44.4104 10.5734V10.5734ZM46.6143 12.9453C46.8366 12.9453 47.054 12.8794 47.2388 12.7558C47.4237 12.6323 47.5678 12.4568 47.6528 12.2514C47.7379 12.0459 47.7602 11.8199 47.7168 11.6019C47.6734 11.3838 47.5664 11.1835 47.4092 11.0263C47.252 10.8691 47.0517 10.762 46.8336 10.7186C46.6155 10.6753 46.3895 10.6975 46.1841 10.7826C45.9787 10.8677 45.8031 11.0118 45.6796 11.1966C45.5561 11.3815 45.4901 11.5988 45.4901 11.8212C45.4901 12.1193 45.6086 12.4052 45.8194 12.616C46.0302 12.8269 46.3161 12.9453 46.6143 12.9453V12.9453ZM48.4969 13.1601C48.2574 13.1601 48.0232 13.2311 47.8241 13.3642C47.6249 13.4973 47.4697 13.6864 47.378 13.9077C47.2863 14.129 47.2623 14.3725 47.3091 14.6075C47.3558 14.8424 47.4712 15.0582 47.6405 15.2276C47.8099 15.3969 48.0257 15.5123 48.2606 15.559C48.4956 15.6057 48.7391 15.5818 48.9604 15.4901C49.1817 15.3984 49.3708 15.2432 49.5039 15.044C49.637 14.8449 49.708 14.6107 49.708 14.3712C49.7081 14.2121 49.6768 14.0546 49.616 13.9076C49.5552 13.7606 49.4659 13.6271 49.3535 13.5146C49.241 13.4021 49.1075 13.3129 48.9605 13.2521C48.8135 13.1913 48.656 13.16 48.4969 13.1601V13.1601ZM48.7389 17.149C48.7392 17.4053 48.8156 17.6558 48.9583 17.8688C49.101 18.0818 49.3037 18.2476 49.5406 18.3455C49.7776 18.4433 50.0383 18.4686 50.2896 18.4183C50.541 18.368 50.7718 18.2443 50.9529 18.0628C51.1339 17.8813 51.2571 17.6502 51.3069 17.3987C51.3566 17.1472 51.3307 16.8866 51.2323 16.6499C51.134 16.4132 50.9676 16.2109 50.7543 16.0687C50.5411 15.9264 50.2904 15.8507 50.034 15.8509C49.8637 15.8508 49.695 15.8844 49.5376 15.9496C49.3803 16.0148 49.2373 16.1105 49.117 16.2311C48.9967 16.3517 48.9014 16.4948 48.8365 16.6524C48.7716 16.8099 48.7384 16.9786 48.7389 17.149V17.149ZM49.8133 20.0995C49.8131 20.3732 49.894 20.6408 50.0458 20.8684C50.1976 21.0961 50.4135 21.2737 50.6663 21.3787C50.919 21.4837 51.1971 21.5114 51.4656 21.4583C51.734 21.4052 51.9807 21.2738 52.1745 21.0805C52.3682 20.8873 52.5003 20.6409 52.5541 20.3726C52.6079 20.1043 52.5809 19.826 52.4765 19.573C52.3722 19.3201 52.1952 19.1037 51.9679 18.9513C51.7406 18.7989 51.4732 18.7173 51.1996 18.7168C50.8325 18.7167 50.4803 18.8622 50.2204 19.1214C49.9605 19.3807 49.8141 19.7324 49.8133 20.0995V20.0995ZM51.961 21.7076C51.67 21.7075 51.3854 21.7937 51.1434 21.9553C50.9013 22.1169 50.7126 22.3467 50.6012 22.6156C50.4897 22.8844 50.4605 23.1803 50.5172 23.4658C50.5739 23.7512 50.714 24.0135 50.9198 24.2193C51.1255 24.4252 51.3877 24.5654 51.6732 24.6222C51.9586 24.679 52.2545 24.6499 52.5234 24.5386C52.7923 24.4272 53.0221 24.2386 53.1838 23.9966C53.3456 23.7546 53.4319 23.4701 53.4319 23.1791C53.4317 22.789 53.2767 22.4149 53.0009 22.139C52.7251 21.8631 52.3511 21.708 51.961 21.7076V21.7076ZM0.451959 28.9666C0.429728 28.9653 0.407457 28.9685 0.386517 28.9761C0.365577 28.9837 0.34641 28.9954 0.330195 29.0107C0.313979 29.026 0.301059 29.0444 0.292227 29.0648C0.283395 29.0853 0.278839 29.1073 0.278839 29.1296C0.278839 29.1519 0.283395 29.1739 0.292227 29.1943C0.301059 29.2148 0.313979 29.2332 0.330195 29.2485C0.34641 29.2638 0.365577 29.2755 0.386517 29.2831C0.407457 29.2907 0.429728 29.2939 0.451959 29.2926C0.474191 29.2939 0.496461 29.2907 0.517401 29.2831C0.538342 29.2755 0.557509 29.2638 0.573724 29.2485C0.589939 29.2332 0.60286 29.2148 0.611692 29.1943C0.620524 29.1739 0.62508 29.1519 0.62508 29.1296C0.62508 29.1073 0.620524 29.0853 0.611692 29.0648C0.60286 29.0444 0.589939 29.026 0.573724 29.0107C0.557509 28.9954 0.538342 28.9837 0.517401 28.9761C0.496461 28.9685 0.474191 28.9653 0.451959 28.9666V28.9666ZM1.39742 25.7729C1.33277 25.7725 1.26948 25.7914 1.21555 25.827C1.16163 25.8627 1.11949 25.9135 1.09448 25.9731C1.06947 26.0327 1.06272 26.0984 1.07507 26.1619C1.08742 26.2253 1.11833 26.2837 1.16387 26.3295C1.20941 26.3754 1.26755 26.4068 1.33091 26.4196C1.39427 26.4324 1.46001 26.4261 1.5198 26.4015C1.57959 26.3769 1.63074 26.3352 1.66678 26.2815C1.70281 26.2279 1.72211 26.1647 1.72223 26.1001C1.72193 26.0138 1.68768 25.9311 1.6269 25.8699C1.56612 25.8086 1.48368 25.7738 1.39742 25.7729ZM3.14338 23.185C3.14373 23.0878 3.11525 22.9928 3.06156 22.9118C3.00787 22.8308 2.93137 22.7676 2.84174 22.7302C2.75211 22.6927 2.65337 22.6826 2.55803 22.7013C2.46269 22.7199 2.37502 22.7664 2.30612 22.8349C2.23722 22.9034 2.19018 22.9908 2.17095 23.086C2.15173 23.1813 2.16118 23.2801 2.19811 23.3699C2.23505 23.4598 2.2978 23.5366 2.37844 23.5908C2.45908 23.645 2.55397 23.6741 2.65112 23.6743C2.78121 23.6744 2.90606 23.623 2.99833 23.5313C3.09059 23.4396 3.14275 23.3151 3.14338 23.185ZM4.20716 21.0704C4.33588 21.0704 4.46171 21.0323 4.56874 20.9607C4.67576 20.8892 4.75918 20.7876 4.80844 20.6687C4.8577 20.5498 4.87059 20.4189 4.84547 20.2926C4.82036 20.1664 4.75838 20.0504 4.66736 19.9594C4.57634 19.8684 4.46038 19.8064 4.33413 19.7813C4.20789 19.7562 4.07703 19.7691 3.95811 19.8183C3.83919 19.8676 3.73754 19.951 3.66603 20.058C3.59452 20.1651 3.55635 20.2909 3.55635 20.4196C3.55728 20.5919 3.62615 20.7569 3.748 20.8788C3.86985 21.0006 4.03484 21.0695 4.20716 21.0704V21.0704ZM6.0466 18.6464C6.20802 18.6466 6.36585 18.5988 6.50011 18.5092C6.63437 18.4196 6.73904 18.2922 6.80086 18.1431C6.86269 17.9939 6.87889 17.8299 6.84743 17.6715C6.81597 17.5132 6.73825 17.3678 6.62411 17.2536C6.50997 17.1395 6.36454 17.0618 6.20622 17.0303C6.0479 16.9989 5.8838 17.0151 5.7347 17.0769C5.58559 17.1387 5.45817 17.2434 5.36856 17.3776C5.27896 17.5119 5.23119 17.6697 5.23131 17.8311C5.23115 17.9383 5.25214 18.0443 5.29305 18.1433C5.33397 18.2423 5.39402 18.3323 5.46976 18.408C5.54549 18.4837 5.63543 18.5438 5.73442 18.5847C5.83341 18.6256 5.93949 18.6466 6.0466 18.6464V18.6464ZM8.14755 16.4289C8.3411 16.4289 8.5303 16.3715 8.69123 16.264C8.85216 16.1565 8.97758 16.0037 9.05165 15.8248C9.12572 15.646 9.1451 15.4493 9.10734 15.2594C9.06958 15.0696 8.97638 14.8952 8.83952 14.7584C8.70266 14.6215 8.52829 14.5283 8.33847 14.4906C8.14864 14.4528 7.95188 14.4722 7.77306 14.5462C7.59425 14.6203 7.44142 14.7457 7.33389 14.9067C7.22636 15.0676 7.16896 15.2568 7.16896 15.4503C7.16896 15.7099 7.27207 15.9588 7.45559 16.1423C7.63911 16.3258 7.88801 16.4289 8.14755 16.4289ZM10.4869 14.4493C10.7134 14.4497 10.9348 14.383 11.1233 14.2576C11.3118 14.1321 11.4588 13.9536 11.5458 13.7446C11.6327 13.5355 11.6557 13.3054 11.6119 13.0832C11.568 12.8611 11.4592 12.657 11.2992 12.4968C11.1393 12.3365 10.9354 12.2273 10.7134 12.1829C10.4914 12.1386 10.2612 12.1611 10.052 12.2476C9.84274 12.3342 9.6639 12.4808 9.53806 12.6691C9.41222 12.8573 9.34505 13.0786 9.34505 13.305C9.3449 13.4551 9.37431 13.6038 9.43161 13.7425C9.48891 13.8813 9.57298 14.0074 9.67901 14.1136C9.78505 14.2199 9.91097 14.3042 10.0496 14.3618C10.1882 14.4194 10.3368 14.4491 10.4869 14.4493V14.4493ZM13.037 12.7258C13.2954 12.7266 13.5483 12.6507 13.7636 12.5077C13.9789 12.3646 14.147 12.1609 14.2464 11.9223C14.3458 11.6837 14.3722 11.421 14.3222 11.1674C14.2722 10.9138 14.148 10.6807 13.9655 10.4978C13.7829 10.3148 13.5501 10.1901 13.2966 10.1395C13.0432 10.0889 12.7804 10.1147 12.5415 10.2136C12.3027 10.3125 12.0986 10.48 11.9551 10.695C11.8116 10.91 11.7351 11.1627 11.7353 11.4212C11.7358 11.7666 11.873 12.0977 12.1169 12.3421C12.3608 12.5866 12.6916 12.7245 13.037 12.7258V12.7258ZM15.8 11.3236C16.0904 11.3237 16.3743 11.2377 16.6158 11.0765C16.8574 10.9152 17.0457 10.686 17.157 10.4178C17.2682 10.1495 17.2975 9.85429 17.241 9.56942C17.1845 9.28456 17.0448 9.02284 16.8395 8.81737C16.6343 8.61189 16.3728 8.47188 16.088 8.41504C15.8032 8.3582 15.5079 8.38707 15.2395 8.49802C14.9712 8.60897 14.7417 8.797 14.5802 9.03835C14.4186 9.27969 14.3323 9.56351 14.3321 9.85393C14.3319 10.0468 14.3698 10.2379 14.4435 10.4161C14.5171 10.5944 14.6252 10.7564 14.7616 10.8929C14.8979 11.0293 15.0597 11.1376 15.2379 11.2115C15.4161 11.2854 15.6071 11.3235 15.8 11.3236V11.3236Z" fill="#2C56DD"></path><path d="M18.7393 10.2944C19.1291 10.2928 19.5055 10.1514 19.8 9.89598C20.0945 9.64054 20.2877 9.28798 20.3444 8.90228C20.5208 9.15605 20.7598 9.35983 21.0383 9.49377C21.3167 9.62771 21.6251 9.68724 21.9335 9.66657C22.2418 9.6459 22.5395 9.54572 22.7976 9.3758C23.0557 9.20588 23.2654 8.97202 23.4062 8.69698C23.5787 8.92669 23.7998 9.1155 24.0537 9.24995C24.3075 9.3844 24.5879 9.46117 24.8749 9.47479C25.1618 9.48841 25.4483 9.43854 25.7137 9.32873C25.9792 9.21893 26.2171 9.0519 26.4106 8.83956C26.7333 9.29543 27.223 9.60532 27.7731 9.70174C28.3232 9.79815 28.8891 9.67327 29.3476 9.3543C29.4248 9.48238 29.5161 9.60145 29.6197 9.70929C29.0979 9.76411 28.6088 9.98954 28.2282 10.3506C27.9927 10.1354 27.7144 9.97226 27.4115 9.87197C27.1086 9.77167 26.7879 9.73646 26.4705 9.76862C26.153 9.80079 25.8459 9.89962 25.5693 10.0586C25.2927 10.2177 25.0528 10.4333 24.8652 10.6914C24.4894 10.3946 24.0242 10.2338 23.5453 10.2353C23.1367 10.2359 22.7368 10.3531 22.3926 10.5732C22.0484 10.7933 21.7742 11.1071 21.6023 11.4777C21.3307 11.293 21.0182 11.1773 20.6918 11.1406C20.3655 11.1039 20.0351 11.1474 19.7293 11.2673C19.4235 11.3872 19.1516 11.5799 18.9371 11.8286C18.7227 12.0774 18.5721 12.3747 18.4985 12.6948C18.2115 12.5198 17.8832 12.4243 17.5472 12.4182C17.2111 12.4121 16.8795 12.4956 16.5864 12.66C16.2933 12.8245 16.0493 13.064 15.8794 13.3539C15.7094 13.6439 15.6197 13.9739 15.6195 14.31V14.3171C15.3509 14.1619 15.0462 14.0802 14.736 14.0803C14.4258 14.0803 14.121 14.1621 13.8525 14.3173C13.5839 14.4725 13.3609 14.6957 13.2061 14.9645C13.0512 15.2332 12.9698 15.5381 12.9701 15.8483C12.9708 16.0142 12.9945 16.1793 13.0405 16.3387C12.7842 16.1788 12.4883 16.0935 12.1862 16.0926C11.8615 16.0924 11.544 16.1884 11.2738 16.3686C11.0037 16.5489 10.7931 16.8051 10.6686 17.105C10.5441 17.405 10.5114 17.735 10.5745 18.0536C10.6376 18.3721 10.7938 18.6648 11.0232 18.8945C11.2527 19.1243 11.5451 19.2809 11.8635 19.3445C12.182 19.4081 12.5121 19.3758 12.8122 19.2517C13.1123 19.1277 13.3689 18.9174 13.5495 18.6476C13.7301 18.3777 13.8266 18.0603 13.8268 17.7356C13.8248 17.598 13.8061 17.4611 13.7712 17.328C14.0334 17.4994 14.3366 17.5979 14.6495 17.6135C14.9624 17.629 15.2738 17.561 15.5517 17.4165C15.8296 17.272 16.0641 17.0561 16.2311 16.791C16.398 16.5259 16.4914 16.2211 16.5017 15.908C16.8039 16.1008 17.1549 16.2034 17.5134 16.2038C17.5465 16.2038 17.5826 16.1991 17.6175 16.1991C17.2085 16.5713 16.9574 17.0859 16.9158 17.6374C16.6157 17.5807 16.3067 17.5908 16.0109 17.6672C15.7151 17.7436 15.4398 17.8842 15.2046 18.0791C14.9694 18.2741 14.78 18.5185 14.6501 18.7949C14.5202 19.0714 14.4528 19.3731 14.4528 19.6786C14.4524 19.7599 14.4579 19.8412 14.4694 19.9218C14.3939 19.9116 14.3177 19.9069 14.2416 19.9076C13.9833 19.9075 13.7275 19.9583 13.4888 20.0571C13.2501 20.1559 13.0332 20.3007 12.8506 20.4834C12.6679 20.666 12.523 20.8828 12.4241 21.1215C12.3252 21.3601 12.2743 21.6159 12.2743 21.8742C12.2731 22.0874 12.3081 22.2993 12.3779 22.5008C12.3376 22.5008 12.2998 22.4954 12.2595 22.4954C11.9294 22.4951 11.6051 22.5829 11.3203 22.7498C11.0354 22.9167 10.8002 23.1566 10.639 23.4447C10.4778 23.7328 10.3965 24.0587 10.4033 24.3888C10.4102 24.7189 10.505 25.0412 10.6781 25.3223C10.6601 25.3212 10.6421 25.3212 10.6242 25.3223C10.2732 25.3219 9.93019 25.4273 9.6399 25.6246C9.34961 25.822 9.1255 26.1022 8.99676 26.4287C8.86803 26.7553 8.84064 27.1131 8.91818 27.4554C8.99572 27.7978 9.17458 28.1088 9.43145 28.348C9.40542 28.348 9.38175 28.3404 9.35809 28.3404C8.97659 28.3395 8.60665 28.4712 8.3115 28.7129C8.01635 28.9546 7.81434 29.2914 7.73999 29.6655C7.66564 30.0397 7.72358 30.4281 7.9039 30.7643C8.08422 31.1005 8.37572 31.3636 8.72856 31.5087C9.0814 31.6537 9.47368 31.6717 9.83832 31.5595C10.203 31.4474 10.5173 31.212 10.7276 30.8938C10.938 30.5755 11.0312 30.194 10.9914 29.8146C10.9516 29.4352 10.7812 29.0814 10.5094 28.8137C10.5461 28.8137 10.5852 28.8184 10.6242 28.8184C10.8652 28.8185 11.1035 28.7686 11.3242 28.6718C11.5449 28.5751 11.7431 28.4336 11.9063 28.2563V28.3155C11.9055 28.7483 12.0427 29.17 12.298 29.5195C11.979 29.6328 11.6954 29.8282 11.4759 30.0859C11.2563 30.3436 11.1085 30.6546 11.0474 30.9876C10.9862 31.3206 11.0138 31.6638 11.1274 31.9827C11.241 32.3017 11.4366 32.585 11.6945 32.8044C11.3825 32.947 11.1168 33.1743 10.9275 33.4604C10.7382 33.7466 10.633 34.08 10.6238 34.423C10.6145 34.7659 10.7016 35.1046 10.8752 35.4005C11.0488 35.6964 11.3019 35.9376 11.6058 36.0969C11.2871 36.2581 11.0259 36.5137 10.8578 36.8289C10.6897 37.144 10.6229 37.5033 10.6665 37.8578C10.7101 38.2123 10.862 38.5447 11.1014 38.8097C11.3409 39.0747 11.6563 39.2594 12.0045 39.3385C11.6749 39.5043 11.4109 39.7765 11.2553 40.111C11.0997 40.4455 11.0616 40.8228 11.1472 41.1816C11.2328 41.5405 11.4371 41.86 11.7269 42.0883C12.0167 42.3165 12.3752 42.4403 12.7441 42.4394C12.8452 42.4387 12.9461 42.4284 13.0453 42.4086C12.6805 42.5301 12.3751 42.7847 12.1899 43.1215C12.0047 43.4584 11.9535 43.8527 12.0463 44.2257C12.1392 44.5987 12.3694 44.9229 12.6909 45.1336C13.0124 45.3443 13.4016 45.4259 13.7807 45.3622C14.1598 45.2985 14.5008 45.094 14.7358 44.7898C14.9707 44.4855 15.0822 44.1038 15.048 43.721C15.0137 43.3381 14.8363 42.9822 14.5512 42.7245C14.266 42.4667 13.8941 42.326 13.5097 42.3305C13.4154 42.3308 13.3213 42.34 13.2287 42.3577C13.5635 42.2561 13.8569 42.0497 14.0657 41.7688C14.2745 41.488 14.3875 41.1475 14.3883 40.7975C14.3883 40.7561 14.3788 40.7212 14.3753 40.6792C14.6328 40.9625 14.9711 41.1599 15.3444 41.2448C15.1192 41.5087 14.9745 41.8316 14.9273 42.1753C14.8802 42.519 14.9326 42.8689 15.0785 43.1837C15.2243 43.4984 15.4573 43.7647 15.75 43.951C16.0426 44.1372 16.3826 44.2356 16.7295 44.2344H16.7691C16.5816 44.4924 16.4692 44.7973 16.4444 45.1152C16.4196 45.4331 16.4832 45.7517 16.6284 46.0357C16.7735 46.3197 16.9944 46.5579 17.2667 46.724C17.5389 46.8901 17.8518 46.9776 18.1707 46.9767C18.3409 46.9762 18.51 46.9511 18.673 46.9022C18.509 47.1498 18.415 47.4372 18.4012 47.7339C18.3874 48.0306 18.4542 48.3255 18.5946 48.5873C18.7349 48.8491 18.9436 49.0679 19.1983 49.2207C19.4531 49.3734 19.7445 49.4542 20.0415 49.4546C20.4141 49.4539 20.7751 49.3245 21.0633 49.0883C20.8666 49.3165 20.7404 49.5969 20.7001 49.8954C20.6597 50.1939 20.7069 50.4978 20.8359 50.77C20.9649 51.0422 21.1702 51.2711 21.4268 51.4289C21.6834 51.5867 21.9803 51.6665 22.2814 51.6588C22.5826 51.6511 22.875 51.556 23.1232 51.3853C23.3713 51.2145 23.5646 50.9754 23.6794 50.6969C23.7943 50.4184 23.8258 50.1126 23.7702 49.8165C23.7145 49.5205 23.5741 49.247 23.366 49.0292C23.5696 49.0255 23.7716 48.9908 23.9647 48.9262V48.9475C23.9649 49.2981 24.0618 49.6418 24.2448 49.9408C24.4278 50.2398 24.6898 50.4824 25.0019 50.642C24.9082 50.6217 24.8126 50.6116 24.7167 50.6118C24.3535 50.6095 24.0021 50.7402 23.7286 50.9791C23.4551 51.2181 23.2785 51.5489 23.232 51.9091C23.1856 52.2693 23.2726 52.634 23.4765 52.9345C23.6805 53.2351 23.9874 53.4506 24.3393 53.5404C24.6912 53.6302 25.0638 53.5882 25.3868 53.4223C25.7099 53.2563 25.9611 52.9779 26.093 52.6395C26.225 52.3012 26.2285 51.9262 26.1031 51.5854C25.9776 51.2446 25.7318 50.9614 25.4119 50.7893C25.5609 50.8281 25.7142 50.8479 25.8681 50.8485C26.2237 50.8486 26.5722 50.7488 26.8739 50.5604C26.9024 50.9089 27.031 51.2417 27.2442 51.5188C27.4574 51.7959 27.7462 52.0055 28.0757 52.1224C28.4053 52.2392 28.7616 52.2583 29.1018 52.1774C29.4419 52.0964 29.7514 51.9189 29.9931 51.6662C30.05 52.0239 30.2178 52.3547 30.4729 52.6119C30.7279 52.8691 31.0573 53.0397 31.4146 53.0996C31.7718 53.1595 32.1389 53.1057 32.4638 52.9457C32.7888 52.7857 33.0554 52.5277 33.2258 52.2081C33.3034 52.5923 33.516 52.936 33.8251 53.177C34.1343 53.418 34.5195 53.5403 34.911 53.5218C35.3025 53.5032 35.6744 53.3451 35.9594 53.076C36.2444 52.8069 36.4236 52.4447 36.4645 52.0549C36.4853 52.3554 36.5929 52.6433 36.7744 52.8837C36.9559 53.1241 37.2033 53.3066 37.4866 53.4089C37.7699 53.5111 38.0769 53.5288 38.37 53.4597C38.6632 53.3907 38.93 53.2378 39.1379 53.0199C39.3457 52.8019 39.4857 52.5282 39.5408 52.2321C39.5959 51.9359 39.5637 51.6302 39.4481 51.352C39.3325 51.0739 39.1386 50.8354 38.8898 50.6655C38.6411 50.4956 38.3483 50.4018 38.0472 50.3953C38.1887 50.2472 38.3072 50.0786 38.3986 49.8954C38.6453 50.1481 38.9574 50.3271 39.3001 50.4124C39.6427 50.4976 40.0024 50.4858 40.3387 50.3781C40.0468 50.5755 39.8355 50.8711 39.7431 51.2111C39.6507 51.551 39.6834 51.9129 39.8352 52.2308C39.987 52.5488 40.2478 52.8017 40.5702 52.9437C40.8927 53.0856 41.2554 53.1071 41.5923 53.0044C41.9293 52.9016 42.2182 52.6813 42.4066 52.3836C42.5949 52.0858 42.6702 51.7304 42.6187 51.3819C42.5672 51.0333 42.3924 50.7148 42.126 50.4843C41.8596 50.2537 41.5193 50.1264 41.167 50.1255C41.0238 50.1269 40.8818 50.1502 40.7457 50.1947C40.9634 50.063 41.1524 49.889 41.3018 49.683C41.4512 49.477 41.5578 49.2433 41.6154 48.9955C41.9421 49.274 42.3576 49.4266 42.7869 49.4256C43.268 49.4246 43.7292 49.2331 44.0694 48.8929C44.4096 48.5527 44.6012 48.0915 44.6021 47.6104C44.6021 47.5968 44.5979 47.5826 44.5979 47.5714C44.8918 47.7858 45.2464 47.901 45.6103 47.9003C45.8375 47.9005 46.0626 47.856 46.2727 47.7692C46.4828 47.6824 46.6737 47.5551 46.8345 47.3944C46.9953 47.2338 47.1229 47.0431 47.21 46.8332C47.2971 46.6232 47.3419 46.3982 47.342 46.1709C47.3429 46.0006 47.3176 45.8312 47.2669 45.6686C47.5924 45.8887 47.9862 45.9844 48.3764 45.9384C48.7666 45.8924 49.1273 45.7077 49.3927 45.4179C49.658 45.1281 49.8104 44.7526 49.8221 44.3599C49.8337 43.9671 49.7038 43.5833 49.456 43.2783C49.7352 43.5242 50.0945 43.6596 50.4665 43.6594C50.8795 43.6594 51.2756 43.4953 51.5676 43.2033C51.8597 42.9112 52.0237 42.5151 52.0237 42.1021C52.0237 41.6891 51.8597 41.2931 51.5676 41.001C51.2756 40.709 50.8795 40.5449 50.4665 40.5449C50.0662 40.5448 49.6816 40.7008 49.3945 40.9798C49.3899 40.7751 49.3556 40.5723 49.2927 40.3775H49.3104C49.6611 40.3773 50.0048 40.2804 50.304 40.0976C50.6031 39.9147 50.8461 39.6529 51.0061 39.3409C50.9872 39.4344 50.9773 39.5295 50.9765 39.6249C50.9723 39.9887 51.1013 40.3414 51.3392 40.6166C51.5772 40.8919 51.9076 41.0705 52.2682 41.1188C52.6287 41.1672 52.9946 41.0819 53.2966 40.8792C53.5986 40.6764 53.816 40.3701 53.9078 40.018C53.9996 39.666 53.9593 39.2925 53.7947 38.9681C53.6301 38.6437 53.3524 38.3907 53.0141 38.2569C52.6758 38.1231 52.3002 38.1177 51.9582 38.2418C51.6162 38.3658 51.3314 38.6107 51.1576 38.9303C51.1958 38.7814 51.2157 38.6284 51.2167 38.4747C51.2151 38.1191 51.1147 37.7709 50.9268 37.4689C51.2753 37.4405 51.6081 37.3119 51.8852 37.0987C52.1623 36.8855 52.3718 36.5968 52.4886 36.2673C52.6054 35.9377 52.6244 35.5815 52.5434 35.2414C52.4624 34.9013 52.2848 34.5919 52.032 34.3503C52.3893 34.293 52.7195 34.125 52.9762 33.8701C53.233 33.6152 53.4034 33.2863 53.4633 32.9295C53.5233 32.5727 53.4698 32.2061 53.3105 31.8812C53.1512 31.5564 52.894 31.2897 52.5752 31.1187C52.9599 31.042 53.3044 30.8298 53.5459 30.5206C53.7875 30.2115 53.9102 29.8259 53.8916 29.4341C53.8731 29.0422 53.7145 28.6699 53.4448 28.385C53.1752 28.1 52.8122 27.9213 52.4219 27.8812C52.8248 27.856 53.2023 27.6763 53.476 27.3797C53.7497 27.083 53.8985 26.6923 53.8914 26.2887C53.8842 25.8852 53.7217 25.4999 53.4377 25.2131C53.1537 24.9264 52.77 24.7602 52.3665 24.7492C51.9631 24.7381 51.5709 24.8831 51.2717 25.154C50.9724 25.4248 50.7891 25.8006 50.76 26.2032C50.7308 26.6058 50.858 27.0041 51.1151 27.3152C51.3723 27.6263 51.7395 27.8263 52.1403 27.8735C51.7857 27.8946 51.4477 28.0307 51.1774 28.2612C50.9071 28.4917 50.7193 28.804 50.6424 29.1508C50.5656 29.4976 50.6039 29.86 50.7515 30.1831C50.8991 30.5062 51.148 30.7723 51.4605 30.9412C51.1488 30.995 50.8579 31.1334 50.6194 31.3413C50.381 31.5492 50.2043 31.8186 50.1086 32.12C50.0129 32.4215 50.0018 32.7435 50.0766 33.0508C50.1514 33.3582 50.3092 33.6391 50.5328 33.8628C50.2365 33.9026 49.9547 34.015 49.7124 34.19C49.4702 34.3651 49.2749 34.5973 49.1441 34.866C49.0132 35.1348 48.9509 35.4317 48.9626 35.7304C48.9743 36.0291 49.0596 36.3202 49.211 36.5779C48.7247 36.6036 48.2667 36.8148 47.9314 37.168C47.596 37.5212 47.4088 37.9895 47.4083 38.4765C47.4084 38.6636 47.4374 38.8496 47.4941 39.0279C47.4652 39.024 47.4362 39.0218 47.4071 39.0214C46.8791 39.0216 46.3728 39.2314 45.9995 39.6047C45.6262 39.978 45.4164 40.4843 45.4162 41.0123C45.4164 41.06 45.4191 41.1076 45.4245 41.1549C45.321 41.1376 45.2164 41.1289 45.1115 41.1289C44.6125 41.1283 44.1301 41.3079 43.753 41.6347C43.3759 41.9614 43.1295 42.4134 43.0591 42.9074C42.8742 42.8574 42.6837 42.8314 42.4923 42.8299C42.0809 42.8303 41.6783 42.9479 41.3313 43.1689C40.9844 43.3899 40.7076 43.7051 40.5333 44.0777C40.3077 43.8937 40.0427 43.7642 39.759 43.6993C39.4752 43.6343 39.1802 43.6357 38.8971 43.7033C38.6139 43.7709 38.3502 43.9029 38.1263 44.089C37.9025 44.2751 37.7246 44.5103 37.6064 44.7764C37.401 44.553 37.1451 44.382 36.8601 44.2777C36.5751 44.1734 36.2693 44.1387 35.9682 44.1767C35.6671 44.2146 35.3794 44.324 35.1292 44.4957C34.879 44.6675 34.6735 44.8966 34.5298 45.1639C34.3597 44.9512 34.146 44.7774 33.903 44.6542C33.6601 44.531 33.3936 44.4612 33.1215 44.4496C32.8493 44.438 32.5778 44.4848 32.3253 44.5869C32.0727 44.689 31.845 44.844 31.6574 45.0415C31.5411 44.7856 31.3697 44.5586 31.1555 44.3766C30.9414 44.1946 30.6897 44.0622 30.4184 43.9887C30.1471 43.9152 29.863 43.9025 29.5862 43.9516C29.3095 44.0006 29.047 44.1101 28.8175 44.2723C28.7551 43.9962 28.6321 43.7374 28.4574 43.5147C28.2827 43.292 28.0606 43.111 27.8073 42.9848C27.5539 42.8585 27.2757 42.7902 26.9927 42.7848C26.7096 42.7794 26.429 42.837 26.171 42.9535C26.1632 42.6824 26.0975 42.416 25.9783 42.1723C25.8591 41.9286 25.6891 41.7133 25.4798 41.5407C25.2705 41.3681 25.0267 41.2423 24.7648 41.1716C24.5029 41.101 24.2289 41.0873 23.9612 41.1312C24.0259 40.8535 24.0275 40.5648 23.9658 40.2863C23.9041 40.0079 23.7807 39.7468 23.6047 39.5224C23.4287 39.298 23.2045 39.116 22.9488 38.9898C22.6931 38.8635 22.4123 38.7963 22.1271 38.793C22.2358 38.5434 22.2897 38.2734 22.285 38.0012C22.2804 37.729 22.2173 37.4609 22.1002 37.2152C21.983 36.9695 21.8144 36.7517 21.6058 36.5768C21.3972 36.4018 21.1535 36.2737 20.8911 36.201C21.057 35.9858 21.1749 35.7377 21.237 35.4732C21.2991 35.2087 21.3039 34.934 21.2512 34.6675C21.1985 34.401 21.0894 34.1488 20.9313 33.9279C20.7732 33.707 20.5697 33.5224 20.3344 33.3865C20.5584 33.2146 20.7414 32.9952 20.8704 32.744C20.9994 32.4928 21.071 32.2161 21.0802 31.9339C21.0894 31.6517 21.0358 31.371 20.9234 31.112C20.811 30.8529 20.6426 30.6221 20.4302 30.436C20.6762 30.3121 20.8927 30.1368 21.0649 29.9219C21.2371 29.707 21.3611 29.4576 21.4283 29.1906C21.4951 28.9253 21.5036 28.6488 21.4532 28.38C21.4029 28.1111 21.2949 27.8564 21.1367 27.6333C21.3999 27.5741 21.6475 27.4597 21.8631 27.2976C22.0787 27.1354 22.2574 26.9294 22.3874 26.6929C22.5173 26.4565 22.5956 26.1952 22.6169 25.9263C22.6382 25.6573 22.6021 25.387 22.5111 25.133C22.7935 25.1475 23.0755 25.099 23.3369 24.991C23.5982 24.8831 23.8323 24.7184 24.0223 24.5089C24.2122 24.2994 24.3531 24.0503 24.435 23.7797C24.5168 23.509 24.5375 23.2235 24.4955 22.9439C24.7622 23.0094 25.0398 23.0166 25.3096 22.965C25.5793 22.9135 25.8348 22.8043 26.0585 22.6451C26.2822 22.4858 26.469 22.2802 26.606 22.0422C26.7431 21.8042 26.8272 21.5394 26.8526 21.266C27.093 21.3921 27.3576 21.4655 27.6286 21.4811C27.8997 21.4967 28.1709 21.4542 28.4242 21.3565C28.6775 21.2588 28.907 21.1082 29.0974 20.9146C29.2877 20.721 29.4346 20.4891 29.528 20.2342C29.7248 20.4129 29.9571 20.548 30.2098 20.6306C30.4625 20.7132 30.7298 20.7414 30.9941 20.7134C31.2825 20.686 31.5607 20.5924 31.8069 20.4399C32.0532 20.2874 32.261 20.0801 32.4141 19.8342C32.5725 20.0609 32.7784 20.2503 33.0175 20.3892C33.2566 20.5281 33.5232 20.6131 33.7985 20.6383C34.0739 20.6636 34.3515 20.6284 34.6118 20.5353C34.8722 20.4422 35.1092 20.2934 35.3061 20.0993C35.4105 20.3615 35.5719 20.5973 35.7788 20.7894C35.9856 20.9814 36.2327 21.1251 36.502 21.2098C36.7712 21.2945 37.056 21.3181 37.3356 21.279C37.6151 21.2399 37.8825 21.1391 38.1182 20.9838C38.1711 21.2614 38.2848 21.5239 38.4513 21.7524C38.6177 21.9808 38.8327 22.1695 39.0808 22.3049H39.0773C39.4934 22.5342 39.9804 22.5993 40.4422 22.4872C40.4937 22.5582 40.5487 22.6268 40.6055 22.6907C40.6297 23.1126 40.7966 23.5138 41.0788 23.8284C41.0912 23.8423 41.1046 23.8551 41.119 23.8669C42.0911 24.8839 44.3471 27.3529 43.9252 30.6584C43.8182 31.482 44.2802 31.8979 44.8719 31.2613C48.4543 27.3996 47.8934 22.6564 47.813 22.105C47.7938 21.7518 47.7154 21.4044 47.581 21.0773C47.623 20.8728 47.6444 20.6647 47.6449 20.456C47.6449 19.9837 47.5358 19.5178 47.3261 19.0946C47.1165 18.6714 46.8119 18.3023 46.4362 18.0161C46.4713 17.8333 46.4893 17.6477 46.49 17.4617C46.4902 16.8758 46.3153 16.3032 45.9876 15.8175C45.6599 15.3318 45.1945 14.9552 44.6512 14.736C44.6387 14.0757 44.394 13.441 43.96 12.9432C43.526 12.4455 42.9305 12.1166 42.2781 12.0144C42.1643 11.3999 41.8391 10.8447 41.3589 10.4449C40.8786 10.0451 40.2737 9.82585 39.6488 9.82525C39.6003 9.82525 39.5559 9.82999 39.5044 9.83176C39.3396 9.32274 39.0177 8.87905 38.5849 8.56441C38.1522 8.24976 37.6309 8.08034 37.0958 8.08048C36.8805 8.08044 36.666 8.10868 36.458 8.16449C36.3249 7.87284 36.1347 7.61081 35.8987 7.39385C35.6626 7.17689 35.3855 7.0094 35.0837 6.90126C34.7819 6.79312 34.4615 6.74652 34.1414 6.76421C33.8213 6.78191 33.508 6.86353 33.2199 7.00427C33.0554 6.72481 32.8329 6.48385 32.5674 6.29763C32.3019 6.11141 31.9996 5.98425 31.6808 5.92471C31.362 5.86517 31.0342 5.87464 30.7194 5.95247C30.4046 6.03031 30.1101 6.1747 29.8558 6.37593C29.6651 6.11101 29.4157 5.89383 29.1271 5.74138C28.8385 5.58894 28.5185 5.50538 28.1922 5.49724C27.8659 5.4891 27.5422 5.55661 27.2463 5.69448C26.9505 5.83235 26.6906 6.03683 26.4869 6.29192C26.2773 6.03236 26.0046 5.83087 25.6948 5.70668C25.3851 5.58249 25.0488 5.53974 24.7178 5.58253C24.3869 5.62531 24.0725 5.75219 23.8045 5.95106C23.5366 6.14992 23.3241 6.41414 23.1873 6.7185C22.9612 6.45018 22.6614 6.25406 22.325 6.1544C21.9886 6.05474 21.6303 6.05593 21.2946 6.15781C20.9588 6.2597 20.6603 6.4578 20.436 6.72761C20.2117 6.99742 20.0715 7.32708 20.0326 7.67579C19.8643 7.45582 19.6427 7.2824 19.3887 7.17194C19.1347 7.06148 18.8567 7.01761 18.581 7.04449C18.3053 7.07138 18.0411 7.16811 17.8132 7.32557C17.5853 7.48302 17.4013 7.69598 17.2787 7.94433C17.156 8.19267 17.0987 8.46819 17.1122 8.74485C17.1257 9.02151 17.2095 9.29016 17.3557 9.52541C17.5019 9.76066 17.7057 9.95474 17.9478 10.0893C18.1899 10.2239 18.4623 10.2945 18.7393 10.2944V10.2944ZM7.77306 52.3986C7.75659 52.3989 7.74032 52.4023 7.72519 52.4089C7.71006 52.4154 7.69636 52.4248 7.68488 52.4366C7.6734 52.4484 7.66436 52.4624 7.65827 52.4777C7.65218 52.493 7.64917 52.5094 7.6494 52.5258C7.64939 52.559 7.6623 52.5908 7.6854 52.6145C7.70849 52.6383 7.73994 52.6521 7.77306 52.653C7.80687 52.6527 7.83923 52.6393 7.86331 52.6156C7.88738 52.5918 7.90127 52.5596 7.90204 52.5258C7.90172 52.4919 7.88798 52.4594 7.86381 52.4356C7.83964 52.4118 7.80701 52.3985 7.77306 52.3986V52.3986ZM6.29985 49.4617C6.26678 49.4615 6.234 49.4679 6.2034 49.4804C6.17279 49.4929 6.14496 49.5114 6.12149 49.5347C6.09802 49.558 6.07938 49.5857 6.06664 49.6162C6.05389 49.6467 6.04729 49.6795 6.04721 49.7125C6.04721 49.7794 6.07377 49.8435 6.12104 49.8908C6.1683 49.938 6.23241 49.9646 6.29926 49.9646C6.3661 49.9646 6.43021 49.938 6.47748 49.8908C6.52475 49.8435 6.5513 49.7794 6.5513 49.7125C6.55138 49.6795 6.54492 49.6468 6.53231 49.6163C6.51969 49.5858 6.50116 49.5581 6.47779 49.5348C6.45442 49.5114 6.42666 49.493 6.39612 49.4804C6.36558 49.4679 6.33286 49.4615 6.29985 49.4617V49.4617ZM5.12661 46.3851C5.05165 46.385 4.97834 46.4071 4.91593 46.4486C4.85353 46.4901 4.80483 46.5492 4.77598 46.6184C4.74713 46.6876 4.73944 46.7638 4.75386 46.8373C4.76828 46.9109 4.80418 46.9785 4.85702 47.0317C4.90985 47.0848 4.97726 47.1212 5.05073 47.136C5.12419 47.1509 5.20042 47.1437 5.26978 47.1153C5.33915 47.0869 5.39853 47.0385 5.44045 46.9764C5.48236 46.9142 5.50491 46.8411 5.50526 46.7661C5.50542 46.6654 5.46565 46.5688 5.39467 46.4974C5.3237 46.4259 5.2273 46.3856 5.12661 46.3851V46.3851ZM4.26931 43.2032C4.16954 43.2034 4.07208 43.2332 3.98925 43.2888C3.90641 43.3444 3.84191 43.4233 3.80389 43.5156C3.76587 43.6078 3.75605 43.7092 3.77565 43.8071C3.79526 43.9049 3.84342 43.9947 3.91405 44.0652C3.98467 44.1356 4.0746 44.1836 4.17247 44.2029C4.27033 44.2223 4.37174 44.2123 4.46389 44.174C4.55604 44.1358 4.63479 44.0711 4.69019 43.9881C4.7456 43.9052 4.77517 43.8076 4.77517 43.7079C4.77525 43.6415 4.76221 43.5757 4.7368 43.5144C4.71139 43.453 4.67411 43.3973 4.62711 43.3504C4.5801 43.3035 4.5243 43.2664 4.46289 43.2411C4.40149 43.2159 4.3357 43.203 4.26931 43.2032V43.2032ZM4.36989 40.5804C4.37024 40.4553 4.33343 40.3329 4.26414 40.2287C4.19484 40.1245 4.09617 40.0432 3.98064 39.9952C3.8651 39.9472 3.73791 39.9345 3.61517 39.9588C3.49243 39.9831 3.37968 40.0434 3.2912 40.1318C3.20272 40.2203 3.1425 40.3331 3.11818 40.4558C3.09386 40.5785 3.10652 40.7057 3.15456 40.8213C3.20261 40.9368 3.28387 41.0355 3.38806 41.1048C3.49224 41.1741 3.61465 41.2109 3.73978 41.2105C3.9068 41.2102 4.06689 41.1437 4.18499 41.0256C4.30309 40.9075 4.36957 40.7474 4.36989 40.5804ZM4.30185 37.4104C4.3015 37.2606 4.25681 37.1144 4.17342 36.99C4.09003 36.8657 3.97168 36.7688 3.8333 36.7116C3.69492 36.6545 3.5427 36.6396 3.39587 36.6688C3.24903 36.6981 3.11415 36.7702 3.00824 36.876C2.90232 36.9818 2.83013 37.1167 2.80076 37.2635C2.7714 37.4103 2.78617 37.5625 2.84322 37.7009C2.90028 37.8394 2.99705 37.9578 3.12134 38.0413C3.24563 38.1248 3.39185 38.1696 3.54158 38.17C3.64148 38.1704 3.74047 38.151 3.83284 38.113C3.92522 38.075 4.00916 38.019 4.07983 37.9484C4.1505 37.8778 4.2065 37.7939 4.2446 37.7016C4.2827 37.6092 4.30216 37.5103 4.30185 37.4104V37.4104ZM2.79728 34.2409C2.7974 34.4155 2.84927 34.5862 2.94636 34.7314C3.04344 34.8765 3.18136 34.9896 3.34271 35.0564C3.50406 35.1232 3.68159 35.1407 3.85287 35.1067C4.02415 35.0726 4.18149 34.9886 4.30502 34.8651C4.42854 34.7417 4.5127 34.5844 4.54687 34.4131C4.58104 34.2419 4.56368 34.0643 4.49699 33.9029C4.4303 33.7415 4.31726 33.6035 4.17217 33.5064C4.02707 33.4092 3.85643 33.3572 3.6818 33.357C3.56558 33.3566 3.45044 33.3792 3.34298 33.4234C3.23553 33.4677 3.13789 33.5328 3.05569 33.6149C2.97348 33.6971 2.90833 33.7947 2.86399 33.9021C2.81964 34.0095 2.79697 34.1247 2.79728 34.2409V34.2409ZM4.1563 32.1115C4.35609 32.1112 4.55129 32.0516 4.71724 31.9404C4.88319 31.8291 5.01244 31.6712 5.08865 31.4865C5.16486 31.3018 5.18462 31.0987 5.14543 30.9028C5.10624 30.7069 5.00985 30.527 4.86846 30.3858C4.72706 30.2447 4.547 30.1486 4.35102 30.1097C4.15504 30.0709 3.95195 30.091 3.7674 30.1676C3.58285 30.2441 3.42513 30.3736 3.31417 30.5398C3.20321 30.7059 3.14399 30.9012 3.14399 31.101C3.14391 31.2339 3.17005 31.3655 3.22092 31.4882C3.27179 31.611 3.34638 31.7225 3.44042 31.8164C3.53446 31.9102 3.6461 31.9846 3.76895 32.0353C3.89179 32.0859 4.02342 32.1118 4.1563 32.1115ZM5.02603 26.9121C4.80116 26.9118 4.58124 26.9781 4.3941 27.1028C4.20697 27.2275 4.06101 27.4049 3.97472 27.6125C3.88842 27.8201 3.86566 28.0487 3.90931 28.2693C3.95297 28.4899 4.06107 28.6926 4.21995 28.8517C4.37883 29.0108 4.58135 29.1193 4.80187 29.1633C5.02239 29.2073 5.251 29.1849 5.45878 29.0989C5.66657 29.0129 5.84418 28.8672 5.96914 28.6803C6.09411 28.4934 6.16081 28.2735 6.16081 28.0487C6.16066 27.7476 6.0411 27.4589 5.82838 27.2458C5.61565 27.0327 5.3271 26.9127 5.02603 26.9121V26.9121ZM6.28683 26.3992C6.53693 26.3997 6.78158 26.3261 6.98981 26.1876C7.19804 26.049 7.36047 25.8518 7.45656 25.6209C7.55265 25.39 7.57806 25.1358 7.52959 24.8904C7.48111 24.6451 7.36093 24.4196 7.18424 24.2426C7.00756 24.0656 6.78233 23.945 6.53707 23.8961C6.2918 23.8471 6.03753 23.8721 5.80644 23.9677C5.57536 24.0634 5.37785 24.2254 5.23893 24.4334C5.1 24.6414 5.02591 24.8859 5.02603 25.136C5.02618 25.4705 5.15899 25.7914 5.39534 26.0282C5.63168 26.265 5.95228 26.3984 6.28683 26.3992V26.3992Z" fill="#2C56DD"></path><path d="M7.92339 23.8048C8.19807 23.8043 8.46641 23.7223 8.6945 23.5692C8.92259 23.4161 9.10018 23.1989 9.20484 22.9449C9.30949 22.691 9.33651 22.4117 9.28248 22.1424C9.22845 21.8731 9.09579 21.6258 8.90127 21.4319C8.70676 21.2379 8.45911 21.106 8.18964 21.0528C7.92016 20.9996 7.64096 21.0274 7.38731 21.1328C7.13366 21.2382 6.91695 21.4165 6.76458 21.645C6.6122 21.8736 6.531 22.1422 6.53124 22.4168C6.53108 22.5995 6.56701 22.7804 6.63697 22.9491C6.70693 23.1179 6.80953 23.2711 6.93889 23.4001C7.06825 23.5291 7.22181 23.6312 7.39076 23.7007C7.55971 23.7702 7.74072 23.8055 7.92339 23.8048ZM11.4159 19.9343C11.416 19.6346 11.3273 19.3416 11.1609 19.0924C10.9945 18.8431 10.7579 18.6488 10.4811 18.534C10.2043 18.4192 9.8996 18.3891 9.60566 18.4475C9.31171 18.5058 9.04167 18.65 8.82968 18.8618C8.61769 19.0737 8.47328 19.3436 8.4147 19.6375C8.35612 19.9314 8.386 20.2361 8.50058 20.513C8.61515 20.7899 8.80927 21.0266 9.05838 21.1932C9.30749 21.3598 9.60041 21.4488 9.90009 21.4489C10.3019 21.4487 10.6871 21.2891 10.9713 21.0052C11.2555 20.7212 11.4154 20.336 11.4159 19.9343Z" fill="#2C56DD"></path></g><defs><clipPath id="clip0_4713_24297"><rect width="64" height="64" fill="white"></rect></clipPath></defs></svg> 