<?xml version="1.0" encoding="UTF-8"?> <svg xmlns="http://www.w3.org/2000/svg" width="64" height="64" viewBox="0 0 64 64" fill="none"><path d="M18.8949 13.4244C15.7784 10.7173 11.3291 9.34326 5.69064 9.34326H3.2097C2.55359 9.34326 2.0205 9.87648 2.0205 10.5328V15.2087C2.0205 15.8649 2.55359 16.3982 3.2097 16.3982L5.4241 16.3777C8.99171 16.3777 11.7187 17.1365 13.5845 18.6131C15.4093 20.0692 16.291 22.2021 16.291 25.1143C16.291 28.1085 15.4093 30.3029 13.564 31.8205C11.7187 33.3381 8.97121 34.1175 5.4241 34.1175H3.1892C2.53309 34.1175 2 34.6507 2 35.3069V39.9418C2 40.5981 2.53309 41.1313 3.1892 41.1313H5.67013C11.2676 41.1313 15.7169 39.6957 18.8539 36.8861C22.0115 34.0559 23.6312 30.0158 23.6312 24.9297C23.6518 20.0282 22.0525 16.1726 18.8949 13.4244Z" fill="#0A2E57"></path><path d="M50.6755 32.0457C52.5208 30.5281 55.2683 29.7487 58.8154 29.7487H61.0503C61.7064 29.7487 62.2395 29.2155 62.2395 28.5593V23.9038C62.2395 23.2476 61.7064 22.7144 61.0503 22.7144H58.5693C52.9719 22.7144 48.5226 24.1499 45.3855 26.9596C42.228 29.7898 40.6082 33.8299 40.6082 38.916C40.6082 43.8175 42.2075 47.6731 45.365 50.4212C48.4816 53.1284 52.9308 54.5024 58.5693 54.5024H61.0503C61.7064 54.5024 62.2395 53.9692 62.2395 53.3129V48.637C62.2395 47.9807 61.7064 47.4475 61.0503 47.4475L58.8359 47.468C55.2683 47.468 52.5413 46.7092 50.6755 45.2326C48.8506 43.7765 47.969 41.6436 47.969 38.7314C47.9485 35.7577 48.8506 33.5633 50.6755 32.0457Z" fill="#0A2E57"></path><path d="M22.2987 60.8606L27.3015 62.1116C27.9372 62.2757 28.5523 61.886 28.7163 61.2503L42.8022 4.70851C42.9663 4.07274 42.5767 3.45749 41.9411 3.29343L36.9382 2.04241C36.3026 1.87834 35.6875 2.268 35.5235 2.90376L21.4375 59.4455C21.294 60.0608 21.6836 60.6965 22.2987 60.8606Z" fill="#74C69D"></path></svg> 