<svg xmlns="http://www.w3.org/2000/svg" xmlns:xlink="http://www.w3.org/1999/xlink" viewBox="0 0 74 47">
  <path
    d="M73.4276 4.00275C73.6295 1.27821 71.2076 0.571843 69.9799 0.555025L32.7949 0.50457L31.7858 0.908206L26.2022 17.7768L22.2499 14.9346L15.7581 19.4082L13.7735 18.0291C10.9144 26.6232 5.16263 44.0468 5.0449 45.0559C4.92717 46.065 5.5999 46.3677 5.95308 46.3846C26.5554 46.4855 68.3317 46.6368 70.6526 46.435C72.9735 46.2332 73.4781 44.4841 73.4445 43.6432C73.3436 31.5509 73.2258 6.7273 73.4276 4.00275Z"
    fill="#EEEEEE" fill-opacity="0.15" />

  <path
    d="M29.5337 7.501L26.1868 17.7937L22.1505 14.8505L15.9109 19.5092L13.8591 17.9955L7.65321 37.1515C7.31685 36.8319 7.06457 36.4451 6.91321 35.9742L0.656847 16.6669C0.286847 15.5065 0.690483 14.2283 1.68276 13.5051L18.0805 1.581C19.0728 0.857817 20.4014 0.857817 21.3937 1.581L29.5337 7.501Z"
    fill="#EEEEEE" />
  <path d="M7.29883 37.5217C7.48383 37.7067 7.70246 37.8581 7.9211 37.9926L7.29883 37.5217Z" fill="#EEEEEE" />
  <path
    d="M38.0929 13.0843L30.1379 7.29884L29.2466 6.65975L21.6952 1.16021C20.5179 0.302479 18.937 0.302479 17.7766 1.16021L1.37883 13.1011C0.201556 13.9588 -0.286171 15.4557 0.16792 16.8348L6.4411 36.142C6.60928 36.6634 6.91201 37.1511 7.31565 37.5211L7.93792 37.992C8.44246 38.2779 9.01428 38.4461 9.60292 38.4461H19.7443V37.4034H9.60292C9.11519 37.4034 8.64428 37.252 8.25746 36.9661L14.1438 18.8361L15.9266 20.1479L22.1661 15.4725L26.4716 18.6175L29.8184 8.32475L37.5043 13.9084C38.3116 14.497 38.6479 15.5229 38.3452 16.4816L36.4952 22.1829H37.5884L39.3375 16.8179C39.7579 15.4388 39.2702 13.942 38.0929 13.0843ZM25.9166 16.9525L22.1493 14.1943L15.9097 18.8698L13.6056 17.1543L7.48383 35.9907C7.46701 35.9234 7.43337 35.8729 7.41656 35.8057L1.16019 16.5152C0.840647 15.5566 1.17701 14.5138 1.98428 13.942L18.382 2.00112C18.7856 1.71521 19.2566 1.56384 19.7275 1.56384C20.1984 1.56384 20.6693 1.71521 21.0729 2.00112L28.927 7.70248L25.9166 16.9525Z"
    fill="#EEEEEE" />

  <path d="M22.9733 29.6163H21.8633V23.9486H22.9733V29.6163Z" fill="#EEEEEE" />
  <path
    d="M28.6243 29.6163H27.632L25.3952 26.1349V29.6163H24.2852V23.9486H25.2774L27.5143 27.4131V23.9486H28.6243V29.6163Z"
    fill="#EEEEEE" />
  <path d="M33.8702 23.9486L32.0034 29.6163H31.1793L29.3125 23.9486H30.4561L31.5998 27.6318L32.7434 23.9486H33.8702Z"
    fill="#EEEEEE" />
  <path
    d="M38.2773 29.6163H34.5605V23.9486H38.2773V24.9408H35.6537V26.2695H37.8905V27.2618H35.6537V28.6408H38.2773V29.6163Z"
    fill="#EEEEEE" />
  <path
    d="M43.0213 27.9516C43.0213 28.4898 42.8195 28.9103 42.4327 29.213C42.0459 29.5157 41.5413 29.6671 40.919 29.6671C40.4649 29.6671 40.0781 29.6166 39.7586 29.4989C39.4222 29.3812 39.1363 29.1962 38.8672 28.9271L39.5904 28.2039C39.9099 28.5235 40.364 28.6748 40.9527 28.6748C41.289 28.6748 41.5245 28.6075 41.7095 28.4898C41.8777 28.3721 41.9618 28.1871 41.9618 27.9685C41.9618 27.7666 41.9113 27.6153 41.7936 27.4975C41.6927 27.3966 41.5245 27.3462 41.289 27.3125L40.6163 27.2116C40.1454 27.1444 39.7754 26.993 39.5231 26.7407C39.254 26.4716 39.1195 26.1016 39.1195 25.6307C39.1195 25.1094 39.3045 24.7057 39.6576 24.3862C40.0108 24.0666 40.4986 23.9153 41.0872 23.9153C41.844 23.9153 42.4663 24.1339 42.9204 24.5712L42.214 25.2607C41.9449 25.0085 41.5581 24.8739 41.0536 24.8739C40.7677 24.8739 40.5658 24.9412 40.4145 25.0757C40.2631 25.2103 40.1958 25.3785 40.1958 25.5971C40.1958 25.7653 40.2463 25.8998 40.3472 26.0007C40.4649 26.1185 40.6331 26.1857 40.8686 26.2194L41.5413 26.3203C42.029 26.3875 42.3822 26.5389 42.6177 26.7575C42.87 27.0266 43.0213 27.4303 43.0213 27.9516Z"
    fill="#EEEEEE" />
  <path d="M47.697 24.9408H46.217V29.6163H45.107V24.9408H43.627V23.9486H47.6801V24.9408H47.697Z" fill="#EEEEEE" />
  <path
    d="M53.7175 29.6163H52.6074V26.3199L51.5311 28.4727H50.7911L49.6979 26.3199V29.6163H48.5879V23.9486H49.6811L51.1611 27.0095L52.6243 23.9486H53.7175V29.6163Z"
    fill="#EEEEEE" />
  <path
    d="M58.7617 29.6163H55.0449V23.9486H58.7617V24.9408H56.1381V26.2695H58.3749V27.2618H56.1381V28.6408H58.7617V29.6163Z"
    fill="#EEEEEE" />
  <path
    d="M64.1613 29.6163H63.1691L60.9323 26.1349V29.6163H59.8223V23.9486H60.8145L63.0513 27.4131V23.9486H64.1613V29.6163Z"
    fill="#EEEEEE" />
  <path d="M69.1227 24.9408H67.6427V29.6163H66.5327V24.9408H65.0527V23.9486H69.1227V24.9408Z" fill="#EEEEEE" />
  <path d="M25.5472 38.4463H21.8809V32.7785H22.9909V37.454H25.564V38.4463H25.5472Z" fill="#EEEEEE" />
  <path
    d="M30.1719 38.4463H26.4551V32.7785H30.1719V33.7708H27.5483V35.0995H29.7851V36.0917H27.5483V37.4708H30.1719V38.4463Z"
    fill="#EEEEEE" />
  <path
    d="M35.622 38.4463H34.4783L34.142 37.4372H32.1238L31.7874 38.4463H30.627L32.6788 32.7785H33.5365L35.622 38.4463ZM33.8392 36.5122L33.1497 34.4604L32.4265 36.5122H33.8392Z"
    fill="#EEEEEE" />
  <path
    d="M40.3618 34.3598C40.3954 34.6457 40.429 35.0494 40.429 35.6044C40.429 36.1594 40.4122 36.5798 40.3618 36.8489C40.3281 37.1348 40.2272 37.3703 40.059 37.6057C39.6554 38.1607 39.1004 38.4298 38.3436 38.4298H36.3086V32.7621H38.3436C39.0836 32.7621 39.6554 33.0312 40.059 33.5862C40.2104 33.8216 40.3113 34.0739 40.3618 34.3598ZM39.2686 36.6303C39.3022 36.4285 39.3022 36.0921 39.3022 35.6044C39.3022 35.1166 39.2854 34.7803 39.2686 34.5785C39.235 34.3766 39.1845 34.2253 39.0836 34.1075C38.8986 33.8721 38.6295 33.7544 38.2595 33.7544H37.4186V37.4376H38.2595C38.6295 37.4376 38.8986 37.3198 39.0836 37.0844C39.1845 36.9835 39.2518 36.8321 39.2686 36.6303Z"
    fill="#EEEEEE" />
  <path
    d="M45.2747 38.4463H41.541V32.7785H45.2578V33.7708H42.6342V35.0995H44.871V36.0917H42.6342V37.4708H45.2578V38.4463H45.2747Z"
    fill="#EEEEEE" />
  <path
    d="M50.6402 38.4463H49.362L48.252 36.1926H47.4616V38.4463H46.3516V32.7785H48.5716C49.1266 32.7785 49.5806 32.9467 49.917 33.2831C50.2534 33.6195 50.4216 34.0231 50.4216 34.5108C50.4216 34.8808 50.3207 35.2004 50.1357 35.4526C49.9338 35.7049 49.6984 35.8899 49.3957 35.9908L50.6402 38.4463ZM49.0761 35.049C49.2275 34.9145 49.2947 34.7295 49.2947 34.5108C49.2947 34.2922 49.2275 34.1072 49.0761 33.9726C48.9247 33.8381 48.7397 33.7708 48.5043 33.7708H47.4616V35.2676H48.5043C48.7397 35.2508 48.9247 35.1835 49.0761 35.049Z"
    fill="#EEEEEE" />
  <path
    d="M55.1971 36.7649C55.1971 37.3031 54.9953 37.7235 54.6084 38.0263C54.2216 38.329 53.7171 38.4803 53.0948 38.4803C52.6407 38.4803 52.2539 38.4299 51.9343 38.3122C51.598 38.1944 51.3121 38.0094 51.043 37.7403L51.7662 37.0172C52.0857 37.3367 52.5398 37.4881 53.1284 37.4881C53.4648 37.4881 53.7002 37.4208 53.8852 37.3031C54.0534 37.1853 54.1375 37.0003 54.1375 36.7817C54.1375 36.5799 54.0871 36.4285 53.9693 36.3108C53.8684 36.2099 53.7002 36.1594 53.4648 36.1258L52.7921 36.0249C52.3212 35.9576 51.9512 35.8063 51.6989 35.554C51.4298 35.2849 51.2952 34.9149 51.2952 34.444C51.2952 33.9226 51.4802 33.519 51.8334 33.1994C52.1866 32.8799 52.6743 32.7285 53.263 32.7285C54.0198 32.7285 54.6421 32.9472 55.0962 33.3844L54.3898 34.074C54.1207 33.8217 53.7339 33.6872 53.2293 33.6872C52.9434 33.6872 52.7416 33.7544 52.5902 33.889C52.4389 34.0235 52.3716 34.1917 52.3716 34.4103C52.3716 34.5785 52.4221 34.7131 52.523 34.814C52.6407 34.9317 52.8089 34.999 53.0443 35.0326L53.7171 35.1335C54.2048 35.2008 54.558 35.3522 54.7934 35.5708C55.0457 35.8399 55.1971 36.2435 55.1971 36.7649Z"
    fill="#EEEEEE" />


  <path
    d="M57.0481 10.3596H53.6172V9.41776L55.7363 6.9623C55.9381 6.72685 56.0222 6.50821 56.0222 6.27276C56.0222 6.05412 55.9549 5.88594 55.8372 5.75139C55.7195 5.61685 55.5513 5.54958 55.3326 5.54958C55.1308 5.54958 54.9795 5.60003 54.8449 5.71776C54.7104 5.83549 54.6431 6.02049 54.6431 6.27276H53.6172C53.6172 5.76821 53.7854 5.36458 54.1049 5.06185C54.4245 4.75912 54.8449 4.60776 55.3326 4.60776C55.8372 4.60776 56.2576 4.75912 56.5772 5.04503C56.8967 5.34776 57.0481 5.73458 57.0481 6.23912C57.0481 6.49139 56.9976 6.71003 56.9135 6.87821C56.8294 7.0464 56.6613 7.26503 56.4426 7.53412L54.8617 9.41776H57.0481V10.3596Z"
    fill="#EEEEEE" />
  <path
    d="M61.3208 8.71203C61.3208 9.23339 61.1526 9.63703 60.8162 9.93976C60.4799 10.2425 60.0762 10.3938 59.6053 10.3938C59.1176 10.3938 58.714 10.2425 58.3776 9.93976C58.0412 9.63703 57.873 9.23339 57.873 8.71203V6.32385C57.873 5.80248 58.0412 5.39885 58.3776 5.09612C58.714 4.79339 59.1176 4.64203 59.6053 4.64203C60.093 4.64203 60.4967 4.79339 60.8162 5.09612C61.1526 5.39885 61.3208 5.80248 61.3208 6.32385V8.71203ZM60.2949 8.71203V6.35748C60.2949 6.12203 60.2276 5.93703 60.1099 5.78567C59.9921 5.65112 59.8239 5.58385 59.6053 5.58385C59.3867 5.58385 59.2353 5.65112 59.1008 5.78567C58.9662 5.92021 58.9158 6.10521 58.9158 6.35748V8.71203C58.9158 8.94748 58.983 9.13248 59.1008 9.26703C59.2353 9.40158 59.3867 9.46885 59.6053 9.46885C59.8239 9.46885 59.9753 9.40158 60.1099 9.26703C60.2276 9.13248 60.2949 8.94748 60.2949 8.71203Z"
    fill="#EEEEEE" />
  <path
    d="M65.6743 10.3428H62.2266V9.41776L64.3457 6.9623C64.5475 6.72685 64.6316 6.50821 64.6316 6.27276C64.6316 6.05412 64.5643 5.88594 64.4466 5.75139C64.3288 5.61685 64.1607 5.54958 63.942 5.54958C63.7402 5.54958 63.5888 5.60003 63.4543 5.71776C63.3197 5.83548 63.2525 6.02048 63.2525 6.27276H62.2266C62.2266 5.76821 62.3947 5.36458 62.7143 5.06185C63.0338 4.75912 63.4543 4.60776 63.942 4.60776C64.4466 4.60776 64.867 4.75912 65.1866 5.04503C65.5061 5.34776 65.6575 5.73458 65.6575 6.23912C65.6575 6.49139 65.607 6.71003 65.5229 6.87821C65.4388 7.04639 65.2706 7.26503 65.052 7.53412L63.4879 9.41776H65.6743V10.3428Z"
    fill="#EEEEEE" />
  <path d="M69.0719 10.343H68.046V5.80207L66.9023 6.81116V5.70116L68.046 4.69207H69.0719V10.343Z" fill="#EEEEEE" />

  <path
    d="M70.4 46.9564H6.0873C5.56593 46.9564 5.09502 46.7209 4.7923 46.3004C4.48957 45.88 4.40548 45.3586 4.57366 44.8541L10.7628 25.8832L11.755 26.2027L5.56593 45.1905C5.51548 45.3586 5.5323 45.5436 5.65002 45.695C5.75093 45.8464 5.91912 45.9305 6.10412 45.9305H70.4C71.8128 45.9305 72.9732 44.77 72.9732 43.3573V3.61591C72.9732 2.20318 71.8296 1.04273 70.4 1.04273L32.6096 1.07636C32.3741 1.07636 32.1555 1.22773 32.0714 1.46318L26.6896 17.945L25.6973 17.6255L31.0791 1.14364C31.2978 0.487727 31.9032 0.0336364 32.5928 0.0336364L70.4 0C72.3846 0 73.9991 1.61455 73.9991 3.61591V43.3573C73.9991 45.3418 72.3846 46.9564 70.4 46.9564Z"
    fill="#EEEEEE" />

</svg>
