<?xml version="1.0" encoding="UTF-8"?> <svg xmlns="http://www.w3.org/2000/svg" width="64" height="64" viewBox="0 0 64 64" fill="none"><path d="M41.4957 52.772C42.0597 49.4643 40.8753 46.0445 38.3373 43.8021C36.5325 42.1202 34.1073 41.1671 31.6257 41.1671C30.1593 41.1671 28.7493 40.8308 27.4521 40.158C25.7601 39.261 24.4065 37.8595 23.5041 36.1776C24.0117 34.8882 24.2374 33.4867 24.2374 31.973C24.2374 36.0655 27.5086 39.3732 31.5693 39.3732H31.7385C35.7429 39.3171 38.9577 36.0094 38.9577 31.973C38.9577 30.5154 39.2397 29.1138 39.6909 27.7683C40.4805 25.694 41.8341 23.844 43.6389 22.4985C45.8385 20.8166 48.5457 20.0318 51.2529 20.1439C49.3353 16.8923 46.6281 14.1453 43.3569 12.1831C43.3569 12.3513 43.3569 12.5755 43.3569 12.7437C43.3569 15.3226 42.5109 17.7893 40.9881 19.8636C40.5369 19.4712 40.0293 19.1348 39.5217 18.8545C40.8753 17.1166 41.5521 14.9862 41.5521 12.7998C41.5521 11.5104 41.3265 10.2209 40.8189 8.98757C39.3525 5.3996 35.9121 2.87681 31.8513 2.76469H31.5693H31.2873C28.8057 2.76469 26.3805 3.10106 24.0117 3.7738C14.029 6.46478 6.18938 14.3695 3.53859 24.4046C1.84659 26.4789 0.831394 29.0017 0.774994 31.6927C0.944194 14.818 14.4802 1.13889 31.2873 0.970703H31.6257C31.7949 0.970703 31.9077 0.970703 32.0769 0.970703C48.7713 1.25101 62.2509 14.818 62.4201 31.6927C62.4201 31.8048 62.4201 31.9169 62.4201 32.029C62.4201 32.1412 62.4201 32.2533 62.4201 32.3654C62.3637 35.0564 61.4049 37.5792 59.6565 39.6535C58.0773 41.5596 55.8777 42.9611 53.4525 43.5218C52.5501 43.746 51.5913 43.8581 50.6889 43.8581C48.1509 43.8581 45.6693 43.0172 43.6389 41.5035C42.9057 42.5126 42.0033 43.3536 41.0445 44.1384C42.6801 46.3248 43.5261 49.0719 43.3569 51.8189C46.6281 49.8568 49.3353 47.1097 51.2529 43.8581C51.9861 43.8021 52.7193 43.6899 53.4525 43.5218C51.1401 48.0067 47.4741 51.6507 43.0185 54.0053C39.5217 55.8554 35.5737 56.8084 31.6257 56.8084C29.8773 56.8084 28.2417 55.9675 27.2265 54.622C26.4933 53.6129 26.0985 52.4356 26.0985 51.2022C26.0985 49.5204 26.8881 47.9506 28.0725 46.9415C29.2005 47.2218 30.4413 47.39 31.6821 47.39C29.5953 47.39 27.8469 49.128 27.8469 51.2583C27.8469 53.3887 29.5389 55.1266 31.6821 55.1266H31.7385C33.8253 55.1266 35.5737 53.3887 35.5737 51.2583C35.5737 49.128 33.8817 47.39 31.7385 47.39C28.9185 47.39 26.2113 46.6052 23.7861 45.1475C23.2785 44.8112 22.7709 44.4748 22.3197 44.1384C21.3045 43.3536 20.4586 42.4566 19.669 41.5035C20.1202 41.1671 20.5714 40.7747 21.0226 40.3262C22.0942 41.7278 23.4478 42.9611 25.027 43.8581C27.0573 45.0354 29.3697 45.6521 31.7385 45.6521C33.0921 45.6521 34.3893 46.1567 35.3481 46.9976C36.5325 48.0067 37.3221 49.5764 37.3221 51.2583C37.3221 52.4917 36.9273 53.669 36.1941 54.6781C38.0553 54.2857 39.8601 53.725 41.5521 52.8841L41.4957 52.772ZM54.0729 27.5441C53.7345 25.638 53.1141 23.844 52.2681 22.1061C49.5609 21.6576 46.7973 22.3864 44.6541 24.0122C42.1725 25.9183 40.7061 28.8896 40.7061 32.029C40.7061 33.5427 40.3677 34.9443 39.6909 36.2337C38.8449 37.9155 37.4349 39.3171 35.7993 40.2141C37.3221 40.7747 38.6757 41.6717 39.8601 42.7929C41.2701 41.7278 42.4545 40.3262 43.3005 38.8125C44.4849 36.7382 45.1053 34.4397 45.1053 32.029C45.1053 30.6275 45.6129 29.3941 46.4589 28.385C47.5305 27.1516 49.0533 26.4228 50.6889 26.4228C51.9297 26.4228 53.1141 26.8153 54.0729 27.5441ZM54.4677 31.8609C54.4113 29.8426 52.7193 28.2168 50.6325 28.1608C48.4893 28.1608 46.7973 29.8987 46.7973 31.973C46.7973 32.029 46.7973 32.0851 46.7973 32.0851C46.8537 34.1594 48.5457 35.7852 50.6325 35.7852C52.7757 35.7852 54.4677 34.0473 54.4677 31.973C54.4677 31.973 54.4677 31.9169 54.4677 31.8609ZM46.4589 35.6731C46.0641 37.1867 45.5001 38.7004 44.6541 40.0459C46.7973 41.7278 49.5609 42.4005 52.2681 41.952C53.0013 41.8399 53.7345 41.6156 54.4677 41.3353C58.1337 39.8217 60.5589 36.2898 60.6717 32.3094V31.8048C60.6717 29.3381 60.3333 26.8713 59.6565 24.4607C57.0057 14.4816 49.1661 6.5769 39.2397 3.82986C41.1573 5.45566 42.4545 7.64208 43.0749 10.0527V10.1088C48.2637 12.8558 52.2681 17.3408 54.4677 22.7788C55.6521 25.638 56.2725 28.7774 56.2725 32.0851C56.2725 33.8791 55.4265 35.5049 54.0729 36.514C53.1141 37.2428 51.9297 37.6913 50.6889 37.6913C48.9969 37.6352 47.4741 36.8504 46.4589 35.6731ZM31.1745 63.0313C14.4802 62.751 1.0006 49.1279 0.831397 32.3094V31.973V31.6366C0.887797 28.9456 1.84659 26.4228 3.59499 24.3486C5.17419 22.4424 7.37378 21.097 9.79898 20.4803C10.7014 20.256 11.6602 20.1439 12.5626 20.1439C15.1006 20.1439 17.5822 20.9848 19.6126 22.4985C20.3458 21.4894 21.2482 20.6485 22.207 19.8636C20.5714 17.6772 19.7254 14.9301 19.8382 12.1831C16.567 14.1453 13.8598 16.8923 11.9422 20.1439C11.209 20.2 10.4758 20.3121 9.74257 20.4803C12.055 15.9953 15.721 12.3513 20.1766 9.99668C23.6734 8.14664 27.6214 7.19358 31.5693 7.19358C33.3177 7.19358 34.9533 8.03451 35.9685 9.38C36.7017 10.3331 37.0965 11.5104 37.0965 12.7998C37.0965 14.5377 36.3069 16.0514 35.1225 17.0605C33.9381 16.7802 32.7537 16.612 31.5129 16.612C33.5997 16.612 35.3481 14.8741 35.3481 12.7437C35.3481 10.6134 33.6561 8.87544 31.5129 8.87544H31.4565C29.3697 8.87544 27.6214 10.6134 27.6214 12.7437C27.6214 14.8741 29.3133 16.612 31.4565 16.612C34.2765 16.612 36.9837 17.3969 39.4089 18.8545C39.9165 19.1908 40.4241 19.5272 40.8753 19.8636C41.8341 20.6485 42.7365 21.5454 43.5261 22.4985C43.0749 22.8349 42.6237 23.2273 42.1725 23.6758C41.1009 22.2743 39.7473 21.0409 38.1681 20.1439C36.1377 18.9666 33.8253 18.3499 31.4565 18.3499C30.1593 18.3499 28.8621 17.8454 27.8469 17.0044C26.6061 15.9393 25.8729 14.3695 25.8729 12.7437C25.8729 11.4543 26.3241 10.277 27.0009 9.32394C25.1398 9.71637 23.2786 10.3331 21.5866 11.1179C21.0226 14.4256 22.207 17.8454 24.745 20.0878C26.5497 21.7697 28.9749 22.7228 31.4565 22.7228C32.9229 22.7228 34.3329 23.0591 35.6301 23.7319C37.3221 24.6289 38.6757 26.0304 39.5781 27.7123C39.0705 29.0578 38.7885 30.4593 38.8449 31.9169C38.8449 27.8244 35.5737 24.5167 31.5129 24.5167H31.4565C27.4521 24.5728 24.2374 27.8805 24.2374 31.9169C24.2374 33.3745 23.9553 34.7761 23.5041 36.1216C22.7145 38.1959 21.361 40.0459 19.5562 41.3914C17.3566 43.0733 14.6494 43.8581 11.9422 43.746C13.8598 46.9976 16.567 49.7446 19.8382 51.7068C19.7254 48.9598 20.515 46.2688 22.1506 44.0824C22.6018 44.4748 23.1094 44.8112 23.617 45.0915C22.2634 46.8294 21.5866 48.9598 21.5866 51.1462C21.5866 52.4356 21.8121 53.725 22.3197 54.9584C23.7861 58.5464 27.2266 61.0692 31.2873 61.1813H31.7949C34.2765 61.1813 36.7017 60.8449 39.0705 60.1722C49.0533 57.4812 56.8929 49.5764 59.5437 39.5414C61.2357 37.4671 62.2509 34.9443 62.3073 32.2533C62.1381 49.1279 48.6021 62.8071 31.7949 62.9753H31.4565H31.1181C31.2873 63.0313 31.1745 63.0313 31.1745 63.0313ZM24.0117 60.2282C22.0941 58.6024 20.797 56.416 20.1766 54.0053C20.1766 54.0053 20.1766 54.0053 20.1766 53.9493C14.9878 51.2022 10.9834 46.7173 8.78377 41.2793C7.59937 38.308 6.97898 35.1685 6.97898 31.973C6.97898 30.179 7.82498 28.5532 9.17858 27.5441C10.1374 26.8153 11.2654 26.3668 12.5626 26.3668C14.2546 26.3668 15.7774 27.1516 16.7926 28.3289C17.1874 26.7592 17.7514 25.3016 18.5974 23.9561C16.4542 22.2743 13.6906 21.6015 10.9834 22.05C10.1938 22.1621 9.51697 22.3864 8.78377 22.6667C5.11778 24.1804 2.69258 27.7123 2.57978 31.6927C2.57978 31.8048 2.57978 31.8609 2.57978 31.973V32.2533C2.57978 34.72 2.91819 37.1867 3.59499 39.5974C6.30218 49.6325 14.0854 57.5372 24.0117 60.2282ZM10.9834 41.952C13.6906 42.4005 16.4542 41.6717 18.5974 40.0459C21.079 38.1398 22.5454 35.1685 22.5454 32.029C22.5454 30.5154 22.8838 29.1138 23.5606 27.8244C24.4066 26.1425 25.8165 24.741 27.4521 23.844H27.3957C25.8729 23.2834 24.5194 22.3864 23.335 21.2651C21.925 22.3303 20.7406 23.7319 19.8946 25.2455C18.7102 27.3198 18.0898 29.6184 18.0898 32.029C18.0898 33.4306 17.5822 34.664 16.7362 35.6731C15.6646 36.9064 14.1418 37.6352 12.5062 37.6352C11.209 37.6352 10.081 37.1867 9.12217 36.4579C9.57337 38.364 10.1938 40.2141 10.9834 41.952ZM8.78377 32.1972C8.89657 34.2155 10.5322 35.8973 12.619 35.8973C14.7622 35.8973 16.4542 34.1594 16.4542 32.0851C16.4542 32.029 16.4542 31.973 16.4542 31.973C16.3978 29.8987 14.7058 28.2729 12.619 28.2729C10.4758 28.2729 8.78377 30.0108 8.78377 32.1412C8.78377 32.0851 8.78377 32.1412 8.78377 32.1972Z" fill="#1F1F30"></path></svg> 